<!-- Generated by readme-aura https://github.com/collectioneur/readme-aura -->
<svg width="860" height="60" viewBox="0 0 860 60" xmlns="http://www.w3.org/2000/svg"><mask id="satori_om-id"><rect x="0" y="0" width="860" height="60" fill="#fff"/></mask><rect x="0" y="0" width="860" height="60" fill="transparent"/><mask id="satori_om-id-0"><rect x="280" y="22" width="70" height="16" fill="#fff"/></mask><g  ><path fill="rgba(180,165,255,0.7)" d="M282.6 35L280.3 35L283.7 30.2L280.6 25.5L282.9 25.5L283.9 27.1Q284.2 27.6 284.4 27.9Q284.6 28.3 284.7 28.6L284.7 28.6Q284.8 28.7 284.8 28.8L284.8 28.8Q284.9 28.7 284.9 28.6L284.9 28.6Q285.1 28.3 285.3 27.9Q285.5 27.6 285.7 27.1L285.7 27.1L286.8 25.5L289.0 25.5L285.9 30.1L289.3 35L287.0 35L285.7 33.0Q285.4 32.6 285.2 32.3Q285.1 32.1 285.0 31.8L285.0 31.8Q284.9 31.7 284.8 31.5L284.8 31.5Q284.7 31.7 284.7 31.8L284.7 31.8Q284.5 32.1 284.4 32.3Q284.2 32.6 283.9 33.0L283.9 33.0L282.6 35Z M296.5 25.1L298.2 25.1L295.1 36.4L293.5 36.4L296.5 25.1Z M305.4 27.1L302.5 27.1L302.5 25.5L310.2 25.5L310.2 27.1L307.3 27.1L307.3 35L305.4 35L305.4 27.1ZM315.2 35L313.3 35L311.2 27.9L313.2 27.9L313.8 30.5Q313.9 31.2 314.1 32.1L314.1 32.1Q314.3 32.6 314.4 33.3L314.4 33.3Q314.5 32.6 314.6 32.1L314.6 32.1Q314.8 31.2 315.0 30.5L315.0 30.5L315.6 27.9L317.4 27.9L318.0 30.5Q318.2 31.2 318.4 32.1L318.4 32.1Q318.5 32.6 318.6 33.3L318.6 33.3Q318.7 32.6 318.9 32.1L318.9 32.1Q319.0 31.2 319.2 30.5L319.2 30.5L319.8 27.9L321.8 27.9L319.7 35L317.8 35L317.0 32.3Q316.9 31.9 316.8 31.4Q316.7 30.9 316.6 30.3L316.6 30.3Q316.5 30.2 316.5 30.1L316.5 30.1Q316.5 30.2 316.5 30.3L316.5 30.3Q316.3 30.9 316.2 31.4Q316.1 31.9 316.0 32.3L316.0 32.3L315.2 35ZM325.0 35L323.1 35L323.1 27.9L325.0 27.9L325.0 35ZM324.1 27.0L324.1 27.0Q323.7 27.0 323.4 26.7Q323.1 26.4 323.1 26.0L323.1 26.0Q323.1 25.6 323.4 25.3Q323.7 25.0 324.1 25.0L324.1 25.0Q324.5 25.0 324.8 25.3Q325.1 25.6 325.1 26.0L325.1 26.0Q325.1 26.4 324.8 26.7Q324.5 27.0 324.1 27.0ZM329.2 27.9L330.5 27.9L330.5 29.4L329.2 29.4L329.2 32.9Q329.2 33.3 329.3 33.4Q329.5 33.6 329.8 33.6L329.8 33.6Q329.9 33.6 330.1 33.6Q330.3 33.5 330.4 33.5L330.4 33.5L330.7 34.9Q330.4 35.0 330.1 35.1Q329.7 35.1 329.5 35.1L329.5 35.1Q328.4 35.1 327.8 34.6Q327.3 34.1 327.3 33.1L327.3 33.1L327.3 29.4L326.3 29.4L326.3 27.9L327.3 27.9L327.3 26.2L329.2 26.2L329.2 27.9ZM334.2 27.9L335.5 27.9L335.5 29.4L334.2 29.4L334.2 32.9Q334.2 33.3 334.4 33.4Q334.5 33.6 334.9 33.6L334.9 33.6Q335.0 33.6 335.2 33.6Q335.4 33.5 335.5 33.5L335.5 33.5L335.7 34.9Q335.4 35.0 335.1 35.1Q334.8 35.1 334.5 35.1L334.5 35.1Q333.4 35.1 332.9 34.6Q332.3 34.1 332.3 33.1L332.3 33.1L332.3 29.4L331.3 29.4L331.3 27.9L332.3 27.9L332.3 26.2L334.2 26.2L334.2 27.9ZM340.3 35.1L340.3 35.1Q339.2 35.1 338.4 34.7Q337.6 34.3 337.2 33.4Q336.8 32.6 336.8 31.5L336.8 31.5Q336.8 30.4 337.2 29.6Q337.6 28.7 338.4 28.3Q339.2 27.8 340.2 27.8L340.2 27.8Q340.9 27.8 341.5 28.0Q342.1 28.3 342.6 28.7Q343.0 29.2 343.3 29.8Q343.5 30.5 343.5 31.4L343.5 31.4L343.5 31.9L338.7 31.9Q338.7 32.5 338.9 32.9L338.9 32.9Q339.1 33.3 339.5 33.5Q339.8 33.7 340.3 33.7L340.3 33.7Q340.7 33.7 340.9 33.6Q341.2 33.5 341.4 33.3Q341.6 33.1 341.7 32.9L341.7 32.9L343.4 33.2Q343.3 33.8 342.8 34.2Q342.4 34.7 341.8 34.9Q341.1 35.1 340.3 35.1ZM338.7 30.8L338.7 30.8L341.7 30.8Q341.7 30.4 341.5 30.1L341.5 30.1Q341.4 29.7 341.0 29.5Q340.7 29.2 340.2 29.2L340.2 29.2Q339.7 29.2 339.4 29.5Q339.0 29.7 338.9 30.1L338.9 30.1Q338.7 30.4 338.7 30.8ZM347.0 35L345.1 35L345.1 27.9L347.0 27.9L347.0 29.1L347.0 29.1Q347.2 28.5 347.7 28.1Q348.2 27.8 348.8 27.8L348.8 27.8Q348.9 27.8 349.1 27.8Q349.3 27.8 349.4 27.9L349.4 27.9L349.4 29.6Q349.3 29.5 349.0 29.5Q348.8 29.5 348.6 29.5L348.6 29.5Q348.1 29.5 347.8 29.7Q347.4 29.9 347.2 30.2Q347.0 30.5 347.0 31.0L347.0 31.0L347.0 35Z "/></g><mask id="satori_om-id-1"><rect x="374" y="22" width="61" height="16" fill="#fff"/></mask><g  ><path fill="rgba(180,165,255,0.7)" d="M379.7 35L377.8 35L377.8 31.4L374.3 25.5L376.6 25.5L378.2 28.5Q378.4 28.9 378.6 29.4L378.6 29.4Q378.7 29.6 378.8 29.8L378.8 29.8Q378.9 29.6 379.0 29.4L379.0 29.4Q379.1 28.9 379.4 28.5L379.4 28.5L380.9 25.5L383.2 25.5L379.7 31.4L379.7 35ZM387.8 35.1L387.8 35.1Q386.7 35.1 385.9 34.7Q385.2 34.2 384.7 33.4Q384.3 32.6 384.3 31.5L384.3 31.5Q384.3 30.4 384.7 29.6Q385.2 28.7 385.9 28.3Q386.7 27.8 387.8 27.8L387.8 27.8Q388.9 27.8 389.6 28.3Q390.4 28.7 390.8 29.6Q391.3 30.4 391.3 31.5L391.3 31.5Q391.3 32.6 390.8 33.4Q390.4 34.2 389.6 34.7Q388.9 35.1 387.8 35.1ZM387.8 33.6L387.8 33.6Q388.3 33.6 388.6 33.4Q389.0 33.1 389.2 32.6Q389.3 32.1 389.3 31.5L389.3 31.5Q389.3 30.8 389.2 30.4Q389.0 29.9 388.6 29.6Q388.3 29.3 387.8 29.3L387.8 29.3Q387.3 29.3 386.9 29.6Q386.6 29.9 386.4 30.4Q386.3 30.8 386.3 31.5L386.3 31.5Q386.3 32.1 386.4 32.6Q386.6 33.1 386.9 33.4Q387.3 33.6 387.8 33.6ZM395.3 35.1L395.3 35.1Q394.6 35.1 394.0 34.8Q393.5 34.4 393.2 33.8Q392.9 33.2 392.9 32.4L392.9 32.4L392.9 27.9L394.8 27.9L394.8 32.1Q394.8 32.7 395.1 33.1Q395.5 33.5 396.1 33.5L396.1 33.5Q396.5 33.5 396.8 33.3Q397.1 33.1 397.3 32.8Q397.5 32.5 397.5 32.0L397.5 32.0L397.5 27.9L399.4 27.9L399.4 35L397.6 35L397.5 33.5Q397.3 34.2 396.8 34.6L396.8 34.6Q396.2 35.1 395.3 35.1ZM403.8 27.1L400.9 27.1L400.9 25.5L408.7 25.5L408.7 27.1L405.8 27.1L405.8 35L403.8 35L403.8 27.1ZM412.7 35.1L412.7 35.1Q412.0 35.1 411.4 34.8Q410.9 34.4 410.6 33.8Q410.3 33.2 410.3 32.4L410.3 32.4L410.3 27.9L412.2 27.9L412.2 32.1Q412.2 32.7 412.5 33.1Q412.8 33.5 413.4 33.5L413.4 33.5Q413.9 33.5 414.2 33.3Q414.5 33.1 414.6 32.8Q414.8 32.5 414.8 32.0L414.8 32.0L414.8 27.9L416.7 27.9L416.7 35L414.9 35L414.9 33.5Q414.6 34.2 414.2 34.6L414.2 34.6Q413.6 35.1 412.7 35.1ZM422.6 35.1L422.6 35.1Q422.0 35.1 421.6 34.9Q421.2 34.7 421.0 34.4Q420.7 34.1 420.6 33.9L420.6 33.9L420.5 33.9L420.5 35L418.7 35L418.7 25.5L420.6 25.5L420.6 29.1L420.6 29.1Q420.7 28.8 421.0 28.5Q421.2 28.2 421.6 28.0Q422.0 27.8 422.6 27.8L422.6 27.8Q423.4 27.8 424.1 28.2Q424.7 28.6 425.1 29.4Q425.5 30.3 425.5 31.5L425.5 31.5Q425.5 32.6 425.1 33.5Q424.8 34.3 424.1 34.7Q423.4 35.1 422.6 35.1ZM422.0 33.6L422.0 33.6Q422.5 33.6 422.9 33.3Q423.2 33.0 423.4 32.6Q423.6 32.1 423.6 31.5L423.6 31.5Q423.6 30.8 423.4 30.4Q423.2 29.9 422.9 29.6Q422.5 29.3 422.0 29.3L422.0 29.3Q421.6 29.3 421.2 29.6Q420.9 29.9 420.7 30.3Q420.5 30.8 420.5 31.5L420.5 31.5Q420.5 32.1 420.7 32.6Q420.9 33.1 421.2 33.3Q421.6 33.6 422.0 33.6ZM430.4 35.1L430.4 35.1Q429.3 35.1 428.5 34.7Q427.7 34.3 427.3 33.4Q426.8 32.6 426.8 31.5L426.8 31.5Q426.8 30.4 427.3 29.6Q427.7 28.7 428.5 28.3Q429.2 27.8 430.3 27.8L430.3 27.8Q431.0 27.8 431.6 28.0Q432.2 28.3 432.6 28.7Q433.1 29.2 433.3 29.8Q433.6 30.5 433.6 31.4L433.6 31.4L433.6 31.9L428.7 31.9Q428.8 32.5 428.9 32.9L428.9 32.9Q429.1 33.3 429.5 33.5Q429.9 33.7 430.4 33.7L430.4 33.7Q430.7 33.7 431.0 33.6Q431.3 33.5 431.5 33.3Q431.7 33.1 431.8 32.9L431.8 32.9L433.5 33.2Q433.3 33.8 432.9 34.2Q432.5 34.7 431.8 34.9Q431.2 35.1 430.4 35.1ZM428.7 30.8L428.7 30.8L431.8 30.8Q431.7 30.4 431.6 30.1L431.6 30.1Q431.4 29.7 431.1 29.5Q430.8 29.2 430.3 29.2L430.3 29.2Q429.8 29.2 429.4 29.5Q429.1 29.7 428.9 30.1L428.9 30.1Q428.8 30.4 428.7 30.8Z "/></g><mask id="satori_om-id-2"><rect x="459" y="22" width="46" height="16" fill="#fff"/></mask><g  ><path fill="rgba(180,165,255,0.7)" d="M462.4 27.1L459.5 27.1L459.5 25.5L467.2 25.5L467.2 27.1L464.3 27.1L464.3 35L462.4 35L462.4 27.1ZM472.2 35L470.3 35L468.2 27.9L470.2 27.9L470.8 30.5Q470.9 31.2 471.1 32.1L471.1 32.1Q471.3 32.6 471.4 33.3L471.4 33.3Q471.5 32.6 471.6 32.1L471.6 32.1Q471.8 31.2 472.0 30.5L472.0 30.5L472.6 27.9L474.4 27.9L475.0 30.5Q475.2 31.2 475.4 32.1L475.4 32.1Q475.5 32.6 475.6 33.3L475.6 33.3Q475.7 32.6 475.9 32.1L475.9 32.1Q476.0 31.2 476.2 30.5L476.2 30.5L476.8 27.9L478.8 27.9L476.7 35L474.8 35L474.0 32.3Q473.9 31.9 473.8 31.4Q473.7 30.9 473.6 30.3L473.6 30.3Q473.5 30.2 473.5 30.1L473.5 30.1Q473.5 30.2 473.4 30.3L473.4 30.3Q473.3 30.9 473.2 31.4Q473.1 31.9 473.0 32.3L473.0 32.3L472.2 35ZM482.0 35L480.1 35L480.1 27.9L482.0 27.9L482.0 35ZM481.1 27.0L481.1 27.0Q480.7 27.0 480.4 26.7Q480.1 26.4 480.1 26.0L480.1 26.0Q480.1 25.6 480.4 25.3Q480.7 25.0 481.1 25.0L481.1 25.0Q481.5 25.0 481.8 25.3Q482.1 25.6 482.1 26.0L482.1 26.0Q482.1 26.4 481.8 26.7Q481.5 27.0 481.1 27.0ZM486.2 27.9L487.5 27.9L487.5 29.4L486.2 29.4L486.2 32.9Q486.2 33.3 486.3 33.4Q486.5 33.6 486.8 33.6L486.8 33.6Q486.9 33.6 487.1 33.6Q487.3 33.5 487.4 33.5L487.4 33.5L487.7 34.9Q487.4 35.0 487.1 35.1Q486.7 35.1 486.5 35.1L486.5 35.1Q485.4 35.1 484.8 34.6Q484.3 34.1 484.3 33.1L484.3 33.1L484.3 29.4L483.3 29.4L483.3 27.9L484.3 27.9L484.3 26.2L486.2 26.2L486.2 27.9ZM492.2 35.1L492.2 35.1Q491.1 35.1 490.3 34.7Q489.6 34.2 489.1 33.4Q488.7 32.6 488.7 31.5L488.7 31.5Q488.7 30.4 489.1 29.6Q489.6 28.7 490.3 28.3Q491.1 27.8 492.2 27.8L492.2 27.8Q492.8 27.8 493.4 28.0Q493.9 28.1 494.3 28.4Q494.7 28.8 495.0 29.2Q495.3 29.6 495.4 30.2L495.4 30.2L493.6 30.5Q493.5 30.2 493.4 30.0Q493.3 29.8 493.1 29.6Q492.9 29.5 492.7 29.4Q492.5 29.3 492.2 29.3L492.2 29.3Q491.7 29.3 491.4 29.6Q491.0 29.9 490.8 30.3Q490.7 30.8 490.7 31.5L490.7 31.5Q490.7 32.1 490.8 32.6Q491.0 33.1 491.4 33.4Q491.7 33.6 492.2 33.6L492.2 33.6Q492.5 33.6 492.7 33.6Q492.9 33.5 493.1 33.3Q493.3 33.1 493.4 32.9Q493.5 32.7 493.6 32.4L493.6 32.4L495.4 32.7Q495.3 33.3 495.0 33.7Q494.7 34.2 494.3 34.5Q493.9 34.8 493.4 35.0Q492.8 35.1 492.2 35.1ZM498.9 30.9L498.9 30.9L498.9 35L497.0 35L497.0 25.5L498.8 25.5L498.8 29.3Q499.1 28.7 499.5 28.3L499.5 28.3Q500.1 27.8 501.0 27.8L501.0 27.8Q501.7 27.8 502.3 28.1Q502.8 28.5 503.1 29.1Q503.4 29.7 503.4 30.5L503.4 30.5L503.4 35L501.5 35L501.5 30.8Q501.5 30.2 501.2 29.8Q500.9 29.4 500.3 29.4L500.3 29.4Q499.9 29.4 499.5 29.6Q499.2 29.8 499.1 30.1Q498.9 30.4 498.9 30.9Z "/></g><mask id="satori_om-id-3"><rect x="529" y="22" width="52" height="16" fill="#fff"/></mask><g  ><path fill="rgba(180,165,255,0.7)" d="M533.2 35L533.2 35L529.9 35L529.9 25.5L533.2 25.5Q534.6 25.5 535.7 26.1Q536.7 26.7 537.2 27.7Q537.8 28.8 537.8 30.3L537.8 30.3Q537.8 31.7 537.2 32.8Q536.7 33.9 535.7 34.4Q534.6 35 533.2 35ZM531.8 27.2L531.8 33.3L533.1 33.3Q534.0 33.3 534.6 33.0Q535.2 32.7 535.6 32.0Q535.9 31.3 535.9 30.3L535.9 30.3Q535.9 29.2 535.5 28.5Q535.2 27.9 534.6 27.5Q534.0 27.2 533.1 27.2L533.1 27.2L531.8 27.2ZM541.4 35L539.5 35L539.5 27.9L541.4 27.9L541.4 35ZM540.5 27.0L540.5 27.0Q540.0 27.0 539.7 26.7Q539.4 26.4 539.4 26.0L539.4 26.0Q539.4 25.6 539.7 25.3Q540.0 25.0 540.5 25.0L540.5 25.0Q540.9 25.0 541.2 25.3Q541.5 25.6 541.5 26.0L541.5 26.0Q541.5 26.4 541.2 26.7Q540.9 27.0 540.5 27.0ZM546.1 35.1L546.1 35.1Q545.3 35.1 544.6 34.9Q544.0 34.7 543.5 34.2Q543.1 33.7 543.0 33.1L543.0 33.1L544.8 32.8Q544.9 33.2 545.3 33.5Q545.6 33.7 546.2 33.7L546.2 33.7Q546.7 33.7 547.1 33.5Q547.4 33.3 547.4 33.0L547.4 33.0Q547.4 32.7 547.1 32.6Q546.9 32.4 546.5 32.3L546.5 32.3L545.2 32.0Q544.2 31.8 543.7 31.3Q543.2 30.8 543.2 30.0L543.2 30.0Q543.2 29.3 543.6 28.8Q543.9 28.3 544.6 28.1Q545.3 27.8 546.2 27.8L546.2 27.8Q547.0 27.8 547.6 28.0Q548.2 28.3 548.6 28.7Q549.0 29.1 549.1 29.7L549.1 29.7L547.4 30.0Q547.3 29.6 547.0 29.4Q546.7 29.2 546.2 29.2L546.2 29.2Q545.7 29.2 545.4 29.4Q545.1 29.6 545.1 29.9L545.1 29.9Q545.1 30.2 545.3 30.4Q545.5 30.5 546.0 30.6L546.0 30.6L547.3 30.9Q548.3 31.1 548.8 31.6Q549.3 32.0 549.3 32.8L549.3 32.8Q549.3 33.5 548.9 34.0Q548.5 34.6 547.8 34.8Q547.1 35.1 546.1 35.1ZM554.1 35.1L554.1 35.1Q553.0 35.1 552.2 34.7Q551.5 34.2 551.0 33.4Q550.6 32.6 550.6 31.5L550.6 31.5Q550.6 30.4 551.0 29.6Q551.5 28.7 552.2 28.3Q553.0 27.8 554.1 27.8L554.1 27.8Q554.7 27.8 555.2 28.0Q555.8 28.1 556.2 28.4Q556.6 28.8 556.9 29.2Q557.1 29.6 557.2 30.2L557.2 30.2L555.5 30.5Q555.4 30.2 555.3 30.0Q555.2 29.8 555.0 29.6Q554.8 29.5 554.6 29.4Q554.4 29.3 554.1 29.3L554.1 29.3Q553.6 29.3 553.2 29.6Q552.9 29.9 552.7 30.3Q552.5 30.8 552.5 31.5L552.5 31.5Q552.5 32.1 552.7 32.6Q552.9 33.1 553.2 33.4Q553.6 33.6 554.1 33.6L554.1 33.6Q554.4 33.6 554.6 33.6Q554.8 33.5 555.0 33.3Q555.2 33.1 555.3 32.9Q555.4 32.7 555.5 32.4L555.5 32.4L557.2 32.7Q557.1 33.3 556.9 33.7Q556.6 34.2 556.2 34.5Q555.8 34.8 555.2 35.0Q554.7 35.1 554.1 35.1ZM562.0 35.1L562.0 35.1Q561.0 35.1 560.2 34.7Q559.4 34.2 559.0 33.4Q558.6 32.6 558.6 31.5L558.6 31.5Q558.6 30.4 559.0 29.6Q559.4 28.7 560.2 28.3Q561.0 27.8 562.0 27.8L562.0 27.8Q563.1 27.8 563.9 28.3Q564.7 28.7 565.1 29.6Q565.5 30.4 565.5 31.5L565.5 31.5Q565.5 32.6 565.1 33.4Q564.7 34.2 563.9 34.7Q563.1 35.1 562.0 35.1ZM562.0 33.6L562.0 33.6Q562.5 33.6 562.9 33.4Q563.2 33.1 563.4 32.6Q563.6 32.1 563.6 31.5L563.6 31.5Q563.6 30.8 563.4 30.4Q563.2 29.9 562.9 29.6Q562.5 29.3 562.0 29.3L562.0 29.3Q561.5 29.3 561.2 29.6Q560.8 29.9 560.7 30.4Q560.5 30.8 560.5 31.5L560.5 31.5Q560.5 32.1 560.7 32.6Q560.8 33.1 561.2 33.4Q561.5 33.6 562.0 33.6ZM569.0 35L567.1 35L567.1 27.9L569.0 27.9L569.0 29.1L569.0 29.1Q569.2 28.5 569.7 28.1Q570.2 27.8 570.8 27.8L570.8 27.8Q570.9 27.8 571.1 27.8Q571.2 27.8 571.4 27.9L571.4 27.9L571.4 29.6Q571.2 29.5 571.0 29.5Q570.8 29.5 570.5 29.5L570.5 29.5Q570.1 29.5 569.8 29.7Q569.4 29.9 569.2 30.2Q569.0 30.5 569.0 31.0L569.0 31.0L569.0 35ZM575.3 35.1L575.3 35.1Q574.5 35.1 573.8 34.7Q573.2 34.3 572.8 33.5Q572.4 32.6 572.4 31.5L572.4 31.5Q572.4 30.3 572.8 29.4Q573.2 28.6 573.9 28.2Q574.5 27.8 575.3 27.8L575.3 27.8Q575.9 27.8 576.3 28.0Q576.7 28.2 577.0 28.5Q577.2 28.8 577.3 29.1L577.3 29.1L577.4 29.1L577.4 25.5L579.3 25.5L579.3 35L577.4 35L577.4 33.9L577.3 33.9Q577.2 34.1 576.9 34.4Q576.7 34.7 576.3 34.9Q575.9 35.1 575.3 35.1ZM575.9 33.6L575.9 33.6Q576.4 33.6 576.7 33.3Q577.1 33.1 577.2 32.6Q577.4 32.1 577.4 31.5L577.4 31.5Q577.4 30.8 577.2 30.3Q577.1 29.9 576.7 29.6Q576.4 29.3 575.9 29.3L575.9 29.3Q575.4 29.3 575.1 29.6Q574.7 29.9 574.5 30.4Q574.4 30.8 574.4 31.5L574.4 31.5Q574.4 32.1 574.6 32.6Q574.7 33.0 575.1 33.3Q575.4 33.6 575.9 33.6Z "/></g></svg>