<!-- Generated by readme-aura https://github.com/collectioneur/readme-aura -->
<svg width="860" height="110" viewBox="0 0 860 110" xmlns="http://www.w3.org/2000/svg"><defs><clipPath id="satori_bc-id"><path x="0" y="0" width="860" height="110" d="M16,0 h828 a16,16 0 0 1 16,16 v78 a16,16 0 0 1 -16,16 h-828 a16,16 0 0 1 -16,-16 v-78 a16,16 0 0 1 16,-16"/></clipPath></defs><mask id="satori_om-id"><rect x="1" y="1" width="858" height="108" fill="#fff"/><path width="860" height="110" fill="none" stroke="#000" stroke-width="2" d="M4.686,4.686 A16,16 0 0 1 16,0 h828 a16,16 0 0 1 16,16 v78 a16,16 0 0 1 -16,16 h-828 a16,16 0 0 1 -16,-16 v-78 A16,16 0 0 1 4.686,4.686"/></mask><path x="0" y="0" width="860" height="110" fill="#08080c" d="M16,0 h828 a16,16 0 0 1 16,16 v78 a16,16 0 0 1 -16,16 h-828 a16,16 0 0 1 -16,-16 v-78 a16,16 0 0 1 16,-16"/><path width="860" height="110" clip-path="url(#satori_bc-id)" fill="none" stroke="rgba(110,80,220,0.15)" stroke-width="2" d="M4.686,4.686 A16,16 0 0 1 16,0 h828 a16,16 0 0 1 16,16 v78 a16,16 0 0 1 -16,16 h-828 a16,16 0 0 1 -16,-16 v-78 A16,16 0 0 1 4.686,4.686"/><mask id="satori_om-id-0"><rect x="57" y="21" width="185" height="68" fill="#fff"/></mask><mask id="satori_om-id-0-0"><rect x="145" y="21" width="10" height="10" fill="#fff"/></mask><path x="145" y="21" width="10" height="10" fill="#7c3aed" d="M150,21 h0 a5,5 0 0 1 5,5 v0 a5,5 0 0 1 -5,5 h0 a5,5 0 0 1 -5,-5 v0 a5,5 0 0 1 5,-5"/><mask id="satori_om-id-0-1"><rect x="108" y="37" width="83" height="16" fill="#fff"/></mask><g  ><path fill="#e0d8ff" d="M113.0 50.1L113.0 50.1Q111.8 50.1 110.8 49.6Q109.8 49.0 109.2 47.9Q108.6 46.8 108.6 45.3L108.6 45.3Q108.6 43.7 109.2 42.6Q109.8 41.6 110.8 41.0Q111.8 40.4 113.0 40.4L113.0 40.4Q114.3 40.4 115.3 41.0Q116.3 41.6 116.8 42.6Q117.4 43.7 117.4 45.3L117.4 45.3Q117.4 46.8 116.8 47.9Q116.3 49.0 115.3 49.6Q114.3 50.1 113.0 50.1ZM113.0 48.4L113.0 48.4Q113.7 48.4 114.3 48.0Q114.8 47.7 115.1 47.0Q115.5 46.3 115.5 45.3L115.5 45.3Q115.5 44.3 115.1 43.6Q114.8 42.9 114.3 42.5Q113.7 42.1 113.0 42.1L113.0 42.1Q112.3 42.1 111.7 42.5Q111.2 42.9 110.9 43.6Q110.6 44.3 110.6 45.3L110.6 45.3Q110.6 46.3 110.9 47.0Q111.2 47.7 111.7 48.0Q112.3 48.4 113.0 48.4ZM120.7 52.7L118.8 52.7L118.8 42.9L120.7 42.9L120.7 44.1L120.8 44.1Q120.9 43.8 121.2 43.5Q121.4 43.2 121.8 43.0Q122.2 42.8 122.8 42.8L122.8 42.8Q123.6 42.8 124.3 43.2Q124.9 43.6 125.3 44.4Q125.7 45.3 125.7 46.5L125.7 46.5Q125.7 47.6 125.3 48.5Q124.9 49.3 124.3 49.7Q123.6 50.1 122.8 50.1L122.8 50.1Q122.2 50.1 121.8 49.9Q121.4 49.7 121.2 49.4Q120.9 49.1 120.8 48.9L120.8 48.9L120.7 48.9L120.7 52.7ZM122.2 48.6L122.2 48.6Q122.7 48.6 123.1 48.3Q123.4 48.0 123.6 47.6Q123.7 47.1 123.7 46.5L123.7 46.5Q123.7 45.8 123.6 45.4Q123.4 44.9 123.1 44.6Q122.7 44.3 122.2 44.3L122.2 44.3Q121.7 44.3 121.4 44.6Q121.0 44.9 120.9 45.3Q120.7 45.8 120.7 46.5L120.7 46.5Q120.7 47.1 120.9 47.6Q121.1 48.1 121.4 48.3Q121.7 48.6 122.2 48.6ZM130.2 50.1L130.2 50.1Q129.1 50.1 128.4 49.7Q127.6 49.3 127.1 48.4Q126.7 47.6 126.7 46.5L126.7 46.5Q126.7 45.4 127.1 44.6Q127.6 43.7 128.3 43.3Q129.1 42.8 130.1 42.8L130.1 42.8Q130.8 42.8 131.4 43.0Q132.0 43.3 132.5 43.7Q133.0 44.2 133.2 44.8Q133.5 45.5 133.5 46.4L133.5 46.4L133.5 46.9L128.6 46.9Q128.6 47.5 128.8 47.9L128.8 47.9Q129.0 48.3 129.4 48.5Q129.8 48.7 130.3 48.7L130.3 48.7Q130.6 48.7 130.9 48.6Q131.1 48.5 131.3 48.3Q131.5 48.1 131.6 47.9L131.6 47.9L133.4 48.2Q133.2 48.8 132.8 49.2Q132.3 49.7 131.7 49.9Q131.1 50.1 130.2 50.1ZM128.6 45.8L128.6 45.8L131.6 45.8Q131.6 45.4 131.5 45.1L131.5 45.1Q131.3 44.7 131.0 44.5Q130.6 44.2 130.2 44.2L130.2 44.2Q129.7 44.2 129.3 44.5Q129.0 44.7 128.8 45.1L128.8 45.1Q128.7 45.4 128.6 45.8ZM136.7 45.9L136.7 45.9L136.7 50L134.8 50L134.8 42.9L136.6 42.9L136.6 44.4Q136.9 43.7 137.3 43.3L137.3 43.3Q137.9 42.8 138.8 42.8L138.8 42.8Q139.5 42.8 140.1 43.1Q140.6 43.5 140.9 44.1Q141.2 44.7 141.2 45.5L141.2 45.5L141.2 50L139.3 50L139.3 45.8Q139.3 45.2 139.0 44.8Q138.7 44.4 138.0 44.4L138.0 44.4Q137.6 44.4 137.3 44.6Q137.0 44.8 136.8 45.1Q136.7 45.4 136.7 45.9Z M149.5 50.1L149.5 50.1Q148.3 50.1 147.5 49.8Q146.6 49.4 146.2 48.8Q145.7 48.1 145.7 47.1L145.7 47.1L147.6 47.1Q147.6 47.5 147.8 47.9Q148.1 48.2 148.5 48.3Q148.9 48.5 149.4 48.5L149.4 48.5Q150.0 48.5 150.3 48.4Q150.7 48.2 150.9 47.9Q151.2 47.7 151.2 47.3L151.2 47.3Q151.2 47.0 151.0 46.8Q150.8 46.5 150.4 46.4Q150.0 46.2 149.5 46.1L149.5 46.1L148.5 45.8Q147.3 45.5 146.6 44.9Q145.9 44.3 145.9 43.3L145.9 43.3Q145.9 42.4 146.4 41.8Q146.8 41.1 147.6 40.8Q148.4 40.4 149.5 40.4L149.5 40.4Q150.5 40.4 151.3 40.8Q152.1 41.1 152.5 41.8Q153.0 42.4 153.0 43.2L153.0 43.2L151.1 43.2Q151.0 42.7 150.6 42.4Q150.2 42.0 149.5 42.0L149.5 42.0Q149.0 42.0 148.6 42.2Q148.3 42.3 148.1 42.6Q147.9 42.8 147.9 43.1L147.9 43.1Q147.9 43.5 148.1 43.7Q148.3 44.0 148.7 44.1Q149.0 44.2 149.4 44.3L149.4 44.3L150.3 44.5Q150.9 44.7 151.4 44.9Q151.9 45.1 152.3 45.5Q152.7 45.8 152.9 46.3Q153.1 46.7 153.1 47.3L153.1 47.3Q153.1 48.2 152.7 48.8Q152.2 49.4 151.4 49.8Q150.6 50.1 149.5 50.1ZM157.6 50.1L157.6 50.1Q156.6 50.1 155.8 49.7Q155.0 49.2 154.6 48.4Q154.2 47.6 154.2 46.5L154.2 46.5Q154.2 45.4 154.6 44.6Q155.0 43.7 155.8 43.3Q156.6 42.8 157.6 42.8L157.6 42.8Q158.7 42.8 159.5 43.3Q160.3 43.7 160.7 44.6Q161.1 45.4 161.1 46.5L161.1 46.5Q161.1 47.6 160.7 48.4Q160.3 49.2 159.5 49.7Q158.7 50.1 157.6 50.1ZM157.6 48.6L157.6 48.6Q158.1 48.6 158.5 48.4Q158.8 48.1 159.0 47.6Q159.2 47.1 159.2 46.5L159.2 46.5Q159.2 45.8 159.0 45.4Q158.8 44.9 158.5 44.6Q158.1 44.3 157.6 44.3L157.6 44.3Q157.1 44.3 156.8 44.6Q156.4 44.9 156.3 45.4Q156.1 45.8 156.1 46.5L156.1 46.5Q156.1 47.1 156.3 47.6Q156.4 48.1 156.8 48.4Q157.1 48.6 157.6 48.6ZM164.9 50.1L164.9 50.1Q164.1 50.1 163.6 49.8Q163.0 49.4 162.7 48.8Q162.4 48.2 162.4 47.4L162.4 47.4L162.4 42.9L164.3 42.9L164.3 47.1Q164.3 47.7 164.7 48.1Q165.0 48.5 165.6 48.5L165.6 48.5Q166.0 48.5 166.3 48.3Q166.6 48.1 166.8 47.8Q167.0 47.5 167.0 47.0L167.0 47.0L167.0 42.9L168.9 42.9L168.9 50L167.1 50L167.1 48.5Q166.8 49.2 166.3 49.6L166.3 49.6Q165.8 50.1 164.9 50.1ZM172.4 50L170.5 50L170.5 42.9L172.4 42.9L172.4 44.1L172.4 44.1Q172.6 43.5 173.1 43.1Q173.6 42.8 174.1 42.8L174.1 42.8Q174.3 42.8 174.5 42.8Q174.6 42.8 174.8 42.9L174.8 42.9L174.8 44.6Q174.6 44.5 174.4 44.5Q174.2 44.5 173.9 44.5L173.9 44.5Q173.5 44.5 173.2 44.7Q172.8 44.9 172.6 45.2Q172.4 45.5 172.4 46.0L172.4 46.0L172.4 50ZM179.0 50.1L179.0 50.1Q177.9 50.1 177.1 49.7Q176.4 49.2 175.9 48.4Q175.5 47.6 175.5 46.5L175.5 46.5Q175.5 45.4 175.9 44.6Q176.4 43.7 177.1 43.3Q177.9 42.8 179.0 42.8L179.0 42.8Q179.6 42.8 180.1 43.0Q180.7 43.1 181.1 43.4Q181.5 43.8 181.8 44.2Q182.0 44.6 182.1 45.2L182.1 45.2L180.4 45.5Q180.3 45.2 180.2 45.0Q180.1 44.8 179.9 44.6Q179.7 44.5 179.5 44.4Q179.3 44.3 179.0 44.3L179.0 44.3Q178.5 44.3 178.2 44.6Q177.8 44.9 177.6 45.3Q177.5 45.8 177.5 46.5L177.5 46.5Q177.5 47.1 177.6 47.6Q177.8 48.1 178.2 48.4Q178.5 48.6 179.0 48.6L179.0 48.6Q179.3 48.6 179.5 48.6Q179.7 48.5 179.9 48.3Q180.1 48.1 180.2 47.9Q180.3 47.7 180.4 47.4L180.4 47.4L182.2 47.7Q182.1 48.3 181.8 48.7Q181.5 49.2 181.1 49.5Q180.7 49.8 180.2 50.0Q179.6 50.1 179.0 50.1ZM186.7 50.1L186.7 50.1Q185.6 50.1 184.8 49.7Q184.0 49.3 183.6 48.4Q183.2 47.6 183.2 46.5L183.2 46.5Q183.2 45.4 183.6 44.6Q184.0 43.7 184.8 43.3Q185.5 42.8 186.6 42.8L186.6 42.8Q187.3 42.8 187.9 43.0Q188.5 43.3 188.9 43.7Q189.4 44.2 189.6 44.8Q189.9 45.5 189.9 46.4L189.9 46.4L189.9 46.9L185.0 46.9Q185.1 47.5 185.3 47.9L185.3 47.9Q185.5 48.3 185.8 48.5Q186.2 48.7 186.7 48.7L186.7 48.7Q187.0 48.7 187.3 48.6Q187.6 48.5 187.8 48.3Q188.0 48.1 188.1 47.9L188.1 47.9L189.8 48.2Q189.6 48.8 189.2 49.2Q188.8 49.7 188.1 49.9Q187.5 50.1 186.7 50.1ZM185.1 45.8L185.1 45.8L188.1 45.8Q188.0 45.4 187.9 45.1L187.9 45.1Q187.7 44.7 187.4 44.5Q187.1 44.2 186.6 44.2L186.6 44.2Q186.1 44.2 185.7 44.5Q185.4 44.7 185.2 45.1L185.2 45.1Q185.1 45.4 185.1 45.8Z "/></g><mask id="satori_om-id-0-2"><rect x="57" y="59" width="185" height="30" fill="#fff"/></mask><g  ><path fill="rgba(180,165,255,0.6)" d="M75.4 71L74.3 71L77.2 63.0L78.4 63.0L81.3 71L80.2 71L79.4 68.8L76.1 68.8L75.4 71ZM76.4 67.9L79.1 67.9L78.5 66.3Q78.4 65.8 78.2 65.2L78.2 65.2Q78.0 64.6 77.8 63.8L77.8 63.8Q77.5 64.6 77.4 65.2L77.4 65.2Q77.2 65.8 77.0 66.3L77.0 66.3L76.4 67.9ZM82.4 63.0L83.4 63.0L83.4 71L82.4 71L82.4 63.0ZM85.1 63.0L86.1 63.0L86.1 71L85.1 71L85.1 63.0Z M91.8 71L90.8 71L90.8 65.0L91.8 65.0L91.8 66.1Q91.9 65.8 92.1 65.5L92.1 65.5Q92.4 65.2 92.7 65.0Q93.1 64.9 93.5 64.9L93.5 64.9Q94.1 64.9 94.5 65.3L94.5 65.3Q94.9 65.6 95.0 66.1L95.0 66.1Q95.1 65.8 95.3 65.6L95.3 65.6Q95.6 65.2 96.0 65.1Q96.4 64.9 96.9 64.9L96.9 64.9Q97.4 64.9 97.8 65.1Q98.3 65.3 98.5 65.8Q98.8 66.3 98.8 67.0L98.8 67.0L98.8 71L97.8 71L97.8 67.0Q97.8 66.3 97.5 66.0Q97.1 65.8 96.6 65.8L96.6 65.8Q96.2 65.8 95.9 65.9Q95.6 66.1 95.5 66.4Q95.3 66.7 95.3 67.1L95.3 67.1L95.3 71L94.3 71L94.3 66.9Q94.3 66.4 94.0 66.1Q93.7 65.8 93.2 65.8L93.2 65.8Q92.8 65.8 92.5 65.9Q92.2 66.1 92.0 66.4Q91.8 66.7 91.8 67.2L91.8 67.2L91.8 71ZM102.2 71.1L102.2 71.1Q101.6 71.1 101.1 70.9Q100.7 70.7 100.4 70.3Q100.1 69.9 100.1 69.3L100.1 69.3Q100.1 68.8 100.3 68.5Q100.5 68.1 100.9 67.9Q101.2 67.8 101.6 67.7Q102.0 67.6 102.5 67.5L102.5 67.5Q103.0 67.5 103.3 67.4Q103.7 67.4 103.8 67.3Q104.0 67.2 104.0 67.0L104.0 67.0L104.0 66.9Q104.0 66.6 103.9 66.3Q103.7 66.0 103.4 65.9Q103.2 65.8 102.7 65.8L102.7 65.8Q102.3 65.8 102.0 65.9Q101.7 66.0 101.5 66.2Q101.3 66.4 101.2 66.6L101.2 66.6L100.3 66.3Q100.5 65.8 100.9 65.5Q101.3 65.2 101.8 65.0Q102.3 64.9 102.7 64.9L102.7 64.9Q103.0 64.9 103.4 65.0Q103.8 65.1 104.1 65.3Q104.5 65.5 104.7 65.9Q105.0 66.3 105.0 67.0L105.0 67.0L105.0 71L104.0 71L104.0 70.2L103.9 70.2Q103.8 70.4 103.6 70.6Q103.4 70.8 103.0 71.0Q102.7 71.1 102.2 71.1ZM102.3 70.3L102.3 70.3Q102.9 70.3 103.2 70.1Q103.6 69.9 103.8 69.5Q104.0 69.2 104.0 68.8L104.0 68.8L104.0 68.0Q103.9 68.1 103.7 68.1Q103.5 68.2 103.3 68.2Q103.0 68.3 102.8 68.3Q102.6 68.3 102.4 68.3L102.4 68.3Q102.1 68.4 101.8 68.5Q101.5 68.6 101.3 68.8Q101.1 69.0 101.1 69.3L101.1 69.3Q101.1 69.7 101.3 69.9Q101.4 70.1 101.7 70.2Q102.0 70.3 102.3 70.3ZM106.7 71.4L106.7 65.0L107.6 65.0L107.6 71.4Q107.6 72.0 107.4 72.4Q107.2 72.8 106.8 73.0Q106.5 73.2 105.9 73.2L105.9 73.2L105.7 73.2L105.7 72.4L105.9 72.4Q106.3 72.4 106.5 72.1Q106.7 71.9 106.7 71.4L106.7 71.4ZM107.1 64.0L107.1 64.0Q106.9 64.0 106.7 63.8Q106.5 63.6 106.5 63.4L106.5 63.4Q106.5 63.1 106.7 62.9Q106.9 62.7 107.1 62.7L107.1 62.7Q107.4 62.7 107.6 62.9Q107.8 63.1 107.8 63.4L107.8 63.4Q107.8 63.6 107.6 63.8Q107.4 64.0 107.1 64.0ZM111.8 71.1L111.8 71.1Q111.0 71.1 110.3 70.7Q109.7 70.4 109.4 69.7Q109.0 69.0 109.0 68.0L109.0 68.0Q109.0 67.1 109.4 66.4Q109.7 65.7 110.3 65.3Q111.0 64.9 111.8 64.9L111.8 64.9Q112.6 64.9 113.2 65.3Q113.8 65.7 114.2 66.4Q114.5 67.1 114.5 68.0L114.5 68.0Q114.5 69.0 114.2 69.7Q113.8 70.4 113.2 70.7Q112.6 71.1 111.8 71.1ZM111.8 70.3L111.8 70.3Q112.4 70.3 112.8 70.0Q113.2 69.6 113.3 69.1Q113.5 68.6 113.5 68.0L113.5 68.0Q113.5 67.4 113.3 66.9Q113.2 66.4 112.8 66.1Q112.4 65.8 111.8 65.8L111.8 65.8Q111.2 65.8 110.8 66.1Q110.4 66.4 110.2 66.9Q110.0 67.4 110.0 68.0L110.0 68.0Q110.0 68.6 110.2 69.1Q110.4 69.6 110.8 70.0Q111.2 70.3 111.8 70.3ZM116.9 71L115.9 71L115.9 65.0L116.9 65.0L116.9 65.9L116.9 65.9Q117.1 65.5 117.5 65.2Q117.9 64.9 118.5 64.9L118.5 64.9Q118.6 64.9 118.7 64.9Q118.9 64.9 119.0 64.9L119.0 64.9L119.0 65.9Q118.9 65.9 118.8 65.9Q118.6 65.8 118.4 65.8L118.4 65.8Q118.0 65.8 117.6 66.0Q117.3 66.2 117.1 66.5Q116.9 66.8 116.9 67.2L116.9 67.2L116.9 71Z M123.8 73.2L122.8 73.2L122.8 65.0L123.8 65.0L123.8 66.0L123.9 66.0Q124.0 65.8 124.2 65.6Q124.4 65.3 124.7 65.1Q125.0 64.9 125.6 64.9L125.6 64.9Q126.4 64.9 127.0 65.3Q127.5 65.7 127.9 66.4Q128.2 67.1 128.2 68.0L128.2 68.0Q128.2 69.0 127.9 69.7Q127.5 70.4 127.0 70.7Q126.4 71.1 125.6 71.1L125.6 71.1Q125.1 71.1 124.7 70.9Q124.4 70.7 124.2 70.5Q124.0 70.2 123.9 70.1L123.9 70.1L123.8 70.1L123.8 73.2ZM125.5 70.3L125.5 70.3Q126.1 70.3 126.4 70.0Q126.8 69.7 127.0 69.1Q127.2 68.6 127.2 68.0L127.2 68.0Q127.2 67.4 127.0 66.9Q126.8 66.4 126.4 66.1Q126.1 65.8 125.5 65.8L125.5 65.8Q124.9 65.8 124.6 66.1Q124.2 66.3 124.0 66.8Q123.8 67.3 123.8 68.0L123.8 68.0Q123.8 68.7 124.0 69.2Q124.2 69.7 124.6 70.0Q124.9 70.3 125.5 70.3ZM130.6 71L129.6 71L129.6 65.0L130.5 65.0L130.5 65.9L130.6 65.9Q130.7 65.5 131.2 65.2Q131.6 64.9 132.1 64.9L132.1 64.9Q132.2 64.9 132.4 64.9Q132.5 64.9 132.6 64.9L132.6 64.9L132.6 65.9Q132.6 65.9 132.4 65.9Q132.2 65.8 132.0 65.8L132.0 65.8Q131.6 65.8 131.3 66.0Q130.9 66.2 130.7 66.5Q130.6 66.8 130.6 67.2L130.6 67.2L130.6 71ZM136.2 71.1L136.2 71.1Q135.4 71.1 134.7 70.7Q134.1 70.4 133.8 69.7Q133.4 69.0 133.4 68.0L133.4 68.0Q133.4 67.1 133.8 66.4Q134.1 65.7 134.7 65.3Q135.4 64.9 136.2 64.9L136.2 64.9Q137.0 64.9 137.6 65.3Q138.2 65.7 138.6 66.4Q138.9 67.1 138.9 68.0L138.9 68.0Q138.9 69.0 138.6 69.7Q138.2 70.4 137.6 70.7Q137.0 71.1 136.2 71.1ZM136.2 70.3L136.2 70.3Q136.8 70.3 137.2 70.0Q137.6 69.6 137.7 69.1Q137.9 68.6 137.9 68.0L137.9 68.0Q137.9 67.4 137.7 66.9Q137.6 66.4 137.2 66.1Q136.8 65.8 136.2 65.8L136.2 65.8Q135.6 65.8 135.2 66.1Q134.8 66.4 134.6 66.9Q134.4 67.4 134.4 68.0L134.4 68.0Q134.4 68.6 134.6 69.1Q134.8 69.6 135.2 70.0Q135.6 70.3 136.2 70.3ZM140.3 71.4L140.3 65.0L141.3 65.0L141.3 71.4Q141.3 72.0 141.1 72.4Q140.9 72.8 140.5 73.0Q140.1 73.2 139.5 73.2L139.5 73.2L139.3 73.2L139.3 72.4L139.5 72.4Q139.9 72.4 140.1 72.1Q140.3 71.9 140.3 71.4L140.3 71.4ZM140.8 64.0L140.8 64.0Q140.5 64.0 140.3 63.8Q140.1 63.6 140.1 63.4L140.1 63.4Q140.1 63.1 140.3 62.9Q140.5 62.7 140.8 62.7L140.8 62.7Q141.1 62.7 141.3 62.9Q141.5 63.1 141.5 63.4L141.5 63.4Q141.5 63.6 141.3 63.8Q141.1 64.0 140.8 64.0ZM145.5 71.1L145.5 71.1Q144.6 71.1 144.0 70.7Q143.4 70.4 143.0 69.7Q142.7 69.0 142.7 68.0Q142.7 67.1 143.0 66.4Q143.4 65.7 144.0 65.3Q144.6 64.9 145.4 64.9L145.4 64.9Q145.9 64.9 146.3 65.1Q146.8 65.2 147.2 65.6Q147.6 65.9 147.8 66.5Q148.0 67.1 148.0 67.9L148.0 67.9L148.0 68.3L143.7 68.3Q143.7 68.9 143.9 69.3L143.9 69.3Q144.1 69.8 144.6 70.0Q145.0 70.3 145.5 70.3L145.5 70.3Q145.9 70.3 146.2 70.2Q146.4 70.1 146.7 69.9Q146.9 69.7 147.0 69.3L147.0 69.3L147.9 69.6Q147.8 70.1 147.4 70.4Q147.1 70.7 146.6 70.9Q146.1 71.1 145.5 71.1ZM143.7 67.5L143.7 67.5L147.0 67.5Q147.0 67.1 146.9 66.8L146.9 66.8Q146.7 66.3 146.3 66.0Q145.9 65.8 145.4 65.8Q144.9 65.8 144.5 66.0Q144.1 66.3 143.9 66.7L143.9 66.7Q143.7 67.1 143.7 67.5ZM151.8 71.1L151.8 71.1Q151.0 71.1 150.4 70.7Q149.8 70.4 149.5 69.7Q149.1 69.0 149.1 68.0L149.1 68.0Q149.1 67.1 149.5 66.4Q149.8 65.7 150.4 65.3Q151.0 64.9 151.8 64.9L151.8 64.9Q152.3 64.9 152.7 65.0Q153.1 65.1 153.4 65.4Q153.7 65.6 153.9 65.9Q154.2 66.2 154.3 66.6L154.3 66.6L153.3 66.8Q153.3 66.6 153.1 66.4Q153.0 66.2 152.8 66.1Q152.6 65.9 152.4 65.9Q152.1 65.8 151.8 65.8L151.8 65.8Q151.2 65.8 150.9 66.1Q150.5 66.4 150.3 66.9Q150.1 67.4 150.1 68.0L150.1 68.0Q150.1 68.6 150.3 69.1Q150.5 69.6 150.9 70.0Q151.2 70.3 151.8 70.3L151.8 70.3Q152.1 70.3 152.4 70.2Q152.6 70.1 152.8 70.0Q153.0 69.8 153.2 69.6Q153.3 69.4 153.4 69.2L153.4 69.2L154.3 69.4Q154.2 69.8 153.9 70.1Q153.7 70.5 153.4 70.7Q153.1 70.9 152.7 71.0Q152.3 71.1 151.8 71.1ZM156.8 65.0L158.0 65.0L158.0 65.8L156.8 65.8L156.8 69.4Q156.8 69.8 157.0 70.0Q157.1 70.2 157.5 70.2L157.5 70.2Q157.6 70.2 157.8 70.2Q157.9 70.2 158.0 70.2L158.0 70.2L158.2 71.0Q158.1 71.0 157.9 71.0Q157.7 71.1 157.5 71.1L157.5 71.1Q156.7 71.1 156.3 70.7Q155.8 70.3 155.8 69.5L155.8 69.5L155.8 65.8L154.9 65.8L154.9 65.0L155.8 65.0L155.8 63.6L156.8 63.6L156.8 65.0ZM161.3 71.1L161.3 71.1Q160.7 71.1 160.2 70.9Q159.7 70.8 159.4 70.4Q159.1 70.1 159.0 69.5L159.0 69.5L159.9 69.3Q160.1 69.8 160.4 70.0Q160.8 70.3 161.3 70.3L161.3 70.3Q161.9 70.3 162.3 70.0Q162.7 69.7 162.7 69.4L162.7 69.4Q162.7 69.1 162.5 68.9Q162.3 68.6 161.8 68.5L161.8 68.5L160.8 68.3Q160.0 68.1 159.6 67.7Q159.2 67.3 159.2 66.7L159.2 66.7Q159.2 66.2 159.5 65.8Q159.8 65.4 160.3 65.1Q160.8 64.9 161.4 64.9L161.4 64.9Q162.0 64.9 162.5 65.1Q162.9 65.3 163.2 65.6Q163.4 65.9 163.6 66.4L163.6 66.4L162.7 66.6Q162.6 66.3 162.3 66.0Q162.0 65.7 161.4 65.7L161.4 65.7Q160.9 65.7 160.5 66.0Q160.2 66.2 160.2 66.6L160.2 66.6Q160.2 66.9 160.4 67.1Q160.7 67.3 161.2 67.5L161.2 67.5L162.1 67.7Q162.9 67.9 163.3 68.3Q163.7 68.7 163.7 69.3L163.7 69.3Q163.7 69.8 163.4 70.2Q163.1 70.7 162.6 70.9Q162.0 71.1 161.3 71.1Z M168.8 73.2L167.8 73.2L167.8 65.0L168.8 65.0L168.8 66.0L168.9 66.0Q169.0 65.8 169.2 65.6Q169.4 65.3 169.7 65.1Q170.0 64.9 170.6 64.9L170.6 64.9Q171.4 64.9 172.0 65.3Q172.5 65.7 172.9 66.4Q173.2 67.1 173.2 68.0L173.2 68.0Q173.2 69.0 172.9 69.7Q172.5 70.4 172.0 70.7Q171.4 71.1 170.6 71.1L170.6 71.1Q170.1 71.1 169.7 70.9Q169.4 70.7 169.2 70.5Q169.0 70.2 168.9 70.1L168.9 70.1L168.8 70.1L168.8 73.2ZM170.5 70.3L170.5 70.3Q171.1 70.3 171.4 70.0Q171.8 69.7 172.0 69.1Q172.2 68.6 172.2 68.0L172.2 68.0Q172.2 67.4 172.0 66.9Q171.8 66.4 171.4 66.1Q171.1 65.8 170.5 65.8L170.5 65.8Q169.9 65.8 169.6 66.1Q169.2 66.3 169.0 66.8Q168.8 67.3 168.8 68.0L168.8 68.0Q168.8 68.7 169.0 69.2Q169.2 69.7 169.6 70.0Q169.9 70.3 170.5 70.3ZM176.6 71.1L176.6 71.1Q176.0 71.1 175.6 70.8Q175.1 70.6 174.8 70.1Q174.6 69.6 174.6 68.8L174.6 68.8L174.6 65.0L175.6 65.0L175.6 68.7Q175.6 69.4 175.9 69.8Q176.3 70.2 176.9 70.2L176.9 70.2Q177.3 70.2 177.7 70.0Q178.0 69.8 178.2 69.5Q178.4 69.1 178.4 68.6L178.4 68.6L178.4 65.0L179.4 65.0L179.4 71L178.5 71L178.5 69.9Q178.2 70.5 177.8 70.7L177.8 70.7Q177.3 71.1 176.6 71.1ZM183.9 71.1L183.9 71.1Q183.3 71.1 183.0 70.9Q182.6 70.7 182.4 70.5Q182.2 70.2 182.1 70.1L182.1 70.1L182.0 70.1L182.0 71L181.1 71L181.1 63.0L182.1 63.0L182.1 66.0L182.1 66.0Q182.2 65.8 182.4 65.6Q182.6 65.3 182.9 65.1Q183.3 64.9 183.9 64.9L183.9 64.9Q184.6 64.9 185.2 65.3Q185.8 65.7 186.1 66.4Q186.4 67.1 186.4 68.0L186.4 68.0Q186.4 69.0 186.1 69.7Q185.8 70.4 185.2 70.7Q184.6 71.1 183.9 71.1ZM183.7 70.3L183.7 70.3Q184.3 70.3 184.7 70.0Q185.1 69.7 185.2 69.1Q185.4 68.6 185.4 68.0L185.4 68.0Q185.4 67.4 185.2 66.9Q185.1 66.4 184.7 66.1Q184.3 65.8 183.7 65.8L183.7 65.8Q183.2 65.8 182.8 66.1Q182.4 66.3 182.2 66.8Q182.0 67.3 182.0 68.0L182.0 68.0Q182.0 68.7 182.2 69.2Q182.4 69.7 182.8 70.0Q183.2 70.3 183.7 70.3ZM187.8 63.0L188.8 63.0L188.8 71L187.8 71L187.8 63.0ZM191.5 71L190.5 71L190.5 65.0L191.5 65.0L191.5 71ZM191.0 64.0L191.0 64.0Q190.7 64.0 190.5 63.8Q190.3 63.6 190.3 63.4L190.3 63.4Q190.3 63.1 190.5 62.9Q190.7 62.7 191.0 62.7L191.0 62.7Q191.3 62.7 191.5 62.9Q191.7 63.1 191.7 63.4L191.7 63.4Q191.7 63.6 191.5 63.8Q191.3 64.0 191.0 64.0ZM195.6 71.1L195.6 71.1Q194.8 71.1 194.2 70.7Q193.5 70.4 193.2 69.7Q192.9 69.0 192.9 68.0L192.9 68.0Q192.9 67.1 193.2 66.4Q193.5 65.7 194.2 65.3Q194.8 64.9 195.6 64.9L195.6 64.9Q196.0 64.9 196.4 65.0Q196.8 65.1 197.1 65.4Q197.4 65.6 197.7 65.9Q197.9 66.2 198.0 66.6L198.0 66.6L197.1 66.8Q197.0 66.6 196.9 66.4Q196.8 66.2 196.6 66.1Q196.4 65.9 196.1 65.9Q195.9 65.8 195.6 65.8L195.6 65.8Q195.0 65.8 194.6 66.1Q194.2 66.4 194.0 66.9Q193.8 67.4 193.8 68.0L193.8 68.0Q193.8 68.6 194.0 69.1Q194.2 69.6 194.6 70.0Q195.0 70.3 195.6 70.3L195.6 70.3Q195.9 70.3 196.1 70.2Q196.4 70.1 196.6 70.0Q196.8 69.8 196.9 69.6Q197.1 69.4 197.1 69.2L197.1 69.2L198.1 69.4Q197.9 69.8 197.7 70.1Q197.5 70.5 197.1 70.7Q196.8 70.9 196.4 71.0Q196.0 71.1 195.6 71.1ZM200.0 72.9L199.3 72.9L199.7 69.9L200.9 69.9L200.0 72.9Z M206.9 71L206.0 71L206.0 63.0L207.4 63.0L209.4 68.0Q209.5 68.2 209.5 68.5Q209.6 68.8 209.7 69.1Q209.8 69.4 209.9 69.7L209.9 69.7Q210.0 69.8 210.0 69.9L210.0 69.9Q210.0 69.8 210.0 69.7L210.0 69.7Q210.1 69.4 210.2 69.1Q210.3 68.8 210.4 68.5Q210.5 68.2 210.6 68.0L210.6 68.0L212.5 63.0L214.0 63.0L214.0 71L213.0 71L213.0 66.4Q213.0 66.2 213.0 65.9Q213.0 65.5 213.0 65.2Q213.0 64.9 213.0 64.5L213.0 64.5Q213.0 64.3 213.0 64.1L213.0 64.1Q212.9 64.3 212.9 64.5L212.9 64.5Q212.7 64.9 212.6 65.3Q212.5 65.6 212.4 65.9Q212.3 66.2 212.2 66.4L212.2 66.4L210.4 71L209.5 71L207.7 66.4Q207.6 66.2 207.5 66.0Q207.4 65.7 207.3 65.3Q207.2 65.0 207.1 64.6L207.1 64.6Q207.0 64.3 206.9 64.1L206.9 64.1Q206.9 64.3 206.9 64.4L206.9 64.4Q206.9 64.8 206.9 65.1Q206.9 65.5 206.9 65.8Q206.9 66.2 206.9 66.4L206.9 66.4L206.9 71ZM215.9 63.0L216.9 63.0L216.9 71L215.9 71L215.9 63.0ZM220.9 63.9L218.4 63.9L218.4 63.0L224.5 63.0L224.5 63.9L222.0 63.9L222.0 71L220.9 71L220.9 63.9Z M128.8 78.0L129.8 78.0L129.8 86L128.8 86L128.8 78.0ZM132.5 86L131.5 86L131.5 80.0L132.5 80.0L132.5 86ZM132.0 79.0L132.0 79.0Q131.7 79.0 131.5 78.8Q131.3 78.6 131.3 78.4L131.3 78.4Q131.3 78.1 131.5 77.9Q131.7 77.7 132.0 77.7L132.0 77.7Q132.3 77.7 132.5 77.9Q132.7 78.1 132.7 78.4L132.7 78.4Q132.7 78.6 132.5 78.8Q132.3 79.0 132.0 79.0ZM136.6 86.1L136.6 86.1Q135.8 86.1 135.2 85.7Q134.6 85.4 134.2 84.7Q133.9 84.0 133.9 83.0L133.9 83.0Q133.9 82.1 134.2 81.4Q134.6 80.7 135.2 80.3Q135.8 79.9 136.6 79.9L136.6 79.9Q137.1 79.9 137.4 80.0Q137.8 80.1 138.1 80.4Q138.5 80.6 138.7 80.9Q138.9 81.2 139.1 81.6L139.1 81.6L138.1 81.8Q138.1 81.6 137.9 81.4Q137.8 81.2 137.6 81.1Q137.4 80.9 137.2 80.9Q136.9 80.8 136.6 80.8L136.6 80.8Q136.0 80.8 135.6 81.1Q135.2 81.4 135.1 81.9Q134.9 82.4 134.9 83.0L134.9 83.0Q134.9 83.6 135.1 84.1Q135.2 84.6 135.6 85.0Q136.0 85.3 136.6 85.3L136.6 85.3Q136.9 85.3 137.2 85.2Q137.4 85.1 137.6 85.0Q137.8 84.8 138.0 84.6Q138.1 84.4 138.2 84.2L138.2 84.2L139.1 84.4Q139.0 84.8 138.7 85.1Q138.5 85.5 138.2 85.7Q137.8 85.9 137.5 86.0Q137.1 86.1 136.6 86.1ZM143.0 86.1L143.0 86.1Q142.1 86.1 141.5 85.7Q140.9 85.4 140.5 84.7Q140.2 84.0 140.2 83.0Q140.2 82.1 140.5 81.4Q140.8 80.7 141.4 80.3Q142.1 79.9 142.9 79.9L142.9 79.9Q143.4 79.9 143.8 80.1Q144.3 80.2 144.7 80.6Q145.0 80.9 145.3 81.5Q145.5 82.1 145.5 82.9L145.5 82.9L145.5 83.3L141.1 83.3Q141.2 83.9 141.4 84.3L141.4 84.3Q141.6 84.8 142.0 85.0Q142.4 85.3 143.0 85.3L143.0 85.3Q143.3 85.3 143.6 85.2Q143.9 85.1 144.1 84.9Q144.3 84.7 144.5 84.3L144.5 84.3L145.4 84.6Q145.3 85.1 144.9 85.4Q144.6 85.7 144.1 85.9Q143.6 86.1 143.0 86.1ZM141.2 82.5L141.2 82.5L144.5 82.5Q144.5 82.1 144.3 81.8L144.3 81.8Q144.1 81.3 143.8 81.0Q143.4 80.8 142.9 80.8Q142.3 80.8 141.9 81.0Q141.6 81.3 141.4 81.7L141.4 81.7Q141.2 82.1 141.2 82.5ZM147.8 82.4L147.8 82.4L147.8 86L146.9 86L146.9 80.0L147.8 80.0L147.8 81.1Q148.1 80.5 148.5 80.3L148.5 80.3Q149.0 79.9 149.6 79.9L149.6 79.9Q150.3 79.9 150.7 80.2Q151.2 80.4 151.4 80.9Q151.7 81.4 151.7 82.2L151.7 82.2L151.7 86L150.7 86L150.7 82.3Q150.7 81.6 150.3 81.2Q150.0 80.8 149.4 80.8L149.4 80.8Q148.9 80.8 148.6 81.0Q148.2 81.2 148.0 81.5Q147.8 81.9 147.8 82.4ZM155.4 86.1L155.4 86.1Q154.8 86.1 154.3 85.9Q153.8 85.8 153.5 85.4Q153.2 85.1 153.1 84.5L153.1 84.5L154.0 84.3Q154.2 84.8 154.5 85.0Q154.9 85.3 155.4 85.3L155.4 85.3Q156.0 85.3 156.4 85.0Q156.8 84.7 156.8 84.4L156.8 84.4Q156.8 84.1 156.6 83.9Q156.3 83.6 155.9 83.5L155.9 83.5L154.9 83.3Q154.1 83.1 153.7 82.7Q153.3 82.3 153.3 81.7L153.3 81.7Q153.3 81.2 153.6 80.8Q153.9 80.4 154.4 80.1Q154.9 79.9 155.5 79.9L155.5 79.9Q156.1 79.9 156.6 80.1Q157.0 80.3 157.3 80.6Q157.5 80.9 157.7 81.4L157.7 81.4L156.8 81.6Q156.7 81.3 156.4 81.0Q156.1 80.7 155.5 80.7L155.5 80.7Q155.0 80.7 154.6 81.0Q154.3 81.2 154.3 81.6L154.3 81.6Q154.3 81.9 154.5 82.1Q154.7 82.3 155.3 82.5L155.3 82.5L156.2 82.7Q157.0 82.9 157.4 83.3Q157.8 83.7 157.8 84.3L157.8 84.3Q157.8 84.8 157.5 85.2Q157.2 85.7 156.7 85.9Q156.1 86.1 155.4 86.1ZM161.7 86.1L161.7 86.1Q160.8 86.1 160.2 85.7Q159.6 85.4 159.2 84.7Q158.9 84.0 158.9 83.0Q158.9 82.1 159.2 81.4Q159.6 80.7 160.2 80.3Q160.8 79.9 161.6 79.9L161.6 79.9Q162.1 79.9 162.5 80.1Q163.0 80.2 163.4 80.6Q163.8 80.9 164.0 81.5Q164.2 82.1 164.2 82.9L164.2 82.9L164.2 83.3L159.9 83.3Q159.9 83.9 160.1 84.3L160.1 84.3Q160.3 84.8 160.7 85.0Q161.2 85.3 161.7 85.3L161.7 85.3Q162.1 85.3 162.4 85.2Q162.6 85.1 162.9 84.9Q163.1 84.7 163.2 84.3L163.2 84.3L164.1 84.6Q164.0 85.1 163.6 85.4Q163.3 85.7 162.8 85.9Q162.3 86.1 161.7 86.1ZM159.9 82.5L159.9 82.5L163.2 82.5Q163.2 82.1 163.1 81.8L163.1 81.8Q162.9 81.3 162.5 81.0Q162.1 80.8 161.6 80.8Q161.0 80.8 160.7 81.0Q160.3 81.3 160.1 81.7L160.1 81.7Q159.9 82.1 159.9 82.5ZM167.8 86.1L167.8 86.1Q167.1 86.1 166.5 85.7Q165.9 85.4 165.6 84.7Q165.3 84.0 165.3 83.0L165.3 83.0Q165.3 82.1 165.6 81.4Q166.0 80.7 166.5 80.3Q167.1 79.9 167.8 79.9L167.8 79.9Q168.4 79.9 168.8 80.1Q169.1 80.3 169.3 80.6Q169.5 80.8 169.6 81.0L169.6 81.0L169.7 81.0L169.7 78.0L170.6 78.0L170.6 86L169.7 86L169.7 85.1L169.6 85.1Q169.5 85.2 169.3 85.5Q169.1 85.7 168.8 85.9Q168.4 86.1 167.8 86.1ZM168.0 85.3L168.0 85.3Q168.5 85.3 168.9 85.0Q169.3 84.7 169.5 84.2Q169.7 83.7 169.7 83.0L169.7 83.0Q169.7 82.3 169.5 81.8Q169.3 81.3 168.9 81.1Q168.5 80.8 168.0 80.8L168.0 80.8Q167.4 80.8 167.0 81.1Q166.7 81.4 166.5 81.9Q166.3 82.4 166.3 83.0L166.3 83.0Q166.3 83.6 166.5 84.1Q166.7 84.7 167.0 85.0Q167.4 85.3 168.0 85.3Z "/></g><mask id="satori_om-id-1"><rect x="275" y="29" width="158" height="53" fill="#fff"/></mask><mask id="satori_om-id-1-0"><rect x="349" y="29" width="10" height="10" fill="#fff"/></mask><path x="349" y="29" width="10" height="10" fill="#0ea5e9" d="M354,29 h0 a5,5 0 0 1 5,5 v0 a5,5 0 0 1 -5,5 h0 a5,5 0 0 1 -5,-5 v0 a5,5 0 0 1 5,-5"/><mask id="satori_om-id-1-1"><rect x="296" y="45" width="117" height="16" fill="#fff"/></mask><g  ><path fill="#e0d8ff" d="M298.8 58L296.9 58L296.9 48.5L300.5 48.5Q301.6 48.5 302.4 48.9Q303.1 49.3 303.5 50.0Q303.9 50.7 303.9 51.6Q303.9 52.6 303.5 53.2Q303.1 53.9 302.4 54.3L302.4 54.3Q302.3 54.3 302.3 54.3L302.3 54.3L304.3 58L302.1 58L300.3 54.6L298.8 54.6L298.8 58ZM298.8 50.1L298.8 53.1L300.2 53.1Q300.8 53.1 301.2 52.9Q301.5 52.7 301.7 52.4Q301.9 52.1 301.9 51.6L301.9 51.6Q301.9 51.1 301.7 50.8Q301.5 50.5 301.2 50.3Q300.8 50.1 300.2 50.1L300.2 50.1L298.8 50.1ZM308.6 58.1L308.6 58.1Q307.5 58.1 306.7 57.7Q305.9 57.3 305.5 56.4Q305.1 55.6 305.1 54.5L305.1 54.5Q305.1 53.4 305.5 52.6Q305.9 51.7 306.7 51.3Q307.4 50.8 308.5 50.8L308.5 50.8Q309.2 50.8 309.8 51.0Q310.4 51.3 310.8 51.7Q311.3 52.2 311.5 52.8Q311.8 53.5 311.8 54.4L311.8 54.4L311.8 54.9L306.9 54.9Q307.0 55.5 307.1 55.9L307.1 55.9Q307.3 56.3 307.7 56.5Q308.1 56.7 308.6 56.7L308.6 56.7Q308.9 56.7 309.2 56.6Q309.5 56.5 309.7 56.3Q309.9 56.1 310.0 55.9L310.0 55.9L311.7 56.2Q311.5 56.8 311.1 57.2Q310.7 57.7 310.0 57.9Q309.4 58.1 308.6 58.1ZM306.9 53.8L306.9 53.8L310.0 53.8Q309.9 53.4 309.8 53.1L309.8 53.1Q309.6 52.7 309.3 52.5Q309.0 52.2 308.5 52.2L308.5 52.2Q308.0 52.2 307.6 52.5Q307.3 52.7 307.1 53.1L307.1 53.1Q307.0 53.4 306.9 53.8ZM315.9 58.1L315.9 58.1Q315.1 58.1 314.4 57.9Q313.7 57.7 313.3 57.2Q312.9 56.7 312.8 56.1L312.8 56.1L314.5 55.8Q314.7 56.2 315.0 56.5Q315.4 56.7 316.0 56.7L316.0 56.7Q316.5 56.7 316.8 56.5Q317.1 56.3 317.1 56.0L317.1 56.0Q317.1 55.7 316.9 55.6Q316.7 55.4 316.2 55.3L316.2 55.3L315.0 55.0Q314.0 54.8 313.5 54.3Q313.0 53.8 313.0 53.0L313.0 53.0Q313.0 52.3 313.3 51.8Q313.7 51.3 314.4 51.1Q315.0 50.8 315.9 50.8L315.9 50.8Q316.8 50.8 317.4 51.0Q318.0 51.3 318.4 51.7Q318.8 52.1 318.9 52.7L318.9 52.7L317.2 53.0Q317.1 52.6 316.8 52.4Q316.5 52.2 316.0 52.2L316.0 52.2Q315.5 52.2 315.2 52.4Q314.9 52.6 314.9 52.9L314.9 52.9Q314.9 53.2 315.1 53.4Q315.3 53.5 315.8 53.6L315.8 53.6L317.1 53.9Q318.1 54.1 318.6 54.6Q319.1 55.0 319.1 55.8L319.1 55.8Q319.1 56.5 318.7 57.0Q318.3 57.6 317.6 57.8Q316.8 58.1 315.9 58.1ZM323.5 58.1L323.5 58.1Q322.5 58.1 321.7 57.7Q320.9 57.2 320.5 56.4Q320.1 55.6 320.1 54.5L320.1 54.5Q320.1 53.4 320.5 52.6Q320.9 51.7 321.7 51.3Q322.5 50.8 323.5 50.8L323.5 50.8Q324.6 50.8 325.4 51.3Q326.2 51.7 326.6 52.6Q327.0 53.4 327.0 54.5L327.0 54.5Q327.0 55.6 326.6 56.4Q326.2 57.2 325.4 57.7Q324.6 58.1 323.5 58.1ZM323.5 56.6L323.5 56.6Q324.1 56.6 324.4 56.4Q324.7 56.1 324.9 55.6Q325.1 55.1 325.1 54.5L325.1 54.5Q325.1 53.8 324.9 53.4Q324.7 52.9 324.4 52.6Q324.1 52.3 323.5 52.3L323.5 52.3Q323.0 52.3 322.7 52.6Q322.4 52.9 322.2 53.4Q322.0 53.8 322.0 54.5L322.0 54.5Q322.0 55.1 322.2 55.6Q322.4 56.1 322.7 56.4Q323.0 56.6 323.5 56.6ZM330.8 58.1L330.8 58.1Q330.1 58.1 329.5 57.8Q329.0 57.4 328.6 56.8Q328.3 56.2 328.3 55.4L328.3 55.4L328.3 50.9L330.3 50.9L330.3 55.1Q330.3 55.7 330.6 56.1Q330.9 56.5 331.5 56.5L331.5 56.5Q331.9 56.5 332.3 56.3Q332.6 56.1 332.7 55.8Q332.9 55.5 332.9 55.0L332.9 55.0L332.9 50.9L334.8 50.9L334.8 58L333.0 58L333.0 56.5Q332.7 57.2 332.3 57.6L332.3 57.6Q331.7 58.1 330.8 58.1ZM338.3 58L336.4 58L336.4 50.9L338.3 50.9L338.3 52.1L338.4 52.1Q338.6 51.5 339.0 51.1Q339.5 50.8 340.1 50.8L340.1 50.8Q340.2 50.8 340.4 50.8Q340.6 50.8 340.7 50.9L340.7 50.9L340.7 52.6Q340.6 52.5 340.3 52.5Q340.1 52.5 339.9 52.5L339.9 52.5Q339.4 52.5 339.1 52.7Q338.7 52.9 338.5 53.2Q338.3 53.5 338.3 54.0L338.3 54.0L338.3 58ZM344.9 58.1L344.9 58.1Q343.8 58.1 343.1 57.7Q342.3 57.2 341.9 56.4Q341.4 55.6 341.4 54.5L341.4 54.5Q341.4 53.4 341.9 52.6Q342.3 51.7 343.1 51.3Q343.8 50.8 344.9 50.8L344.9 50.8Q345.5 50.8 346.1 51.0Q346.6 51.1 347.0 51.4Q347.4 51.8 347.7 52.2Q348.0 52.6 348.1 53.2L348.1 53.2L346.3 53.5Q346.2 53.2 346.1 53.0Q346.0 52.8 345.8 52.6Q345.7 52.5 345.4 52.4Q345.2 52.3 344.9 52.3L344.9 52.3Q344.4 52.3 344.1 52.6Q343.7 52.9 343.6 53.3Q343.4 53.8 343.4 54.5L343.4 54.5Q343.4 55.1 343.6 55.6Q343.7 56.1 344.1 56.4Q344.4 56.6 344.9 56.6L344.9 56.6Q345.2 56.6 345.4 56.6Q345.7 56.5 345.8 56.3Q346.0 56.1 346.1 55.9Q346.3 55.7 346.3 55.4L346.3 55.4L348.1 55.7Q348.0 56.3 347.7 56.7Q347.4 57.2 347.0 57.5Q346.6 57.8 346.1 58.0Q345.5 58.1 344.9 58.1ZM352.6 58.1L352.6 58.1Q351.5 58.1 350.7 57.7Q349.9 57.3 349.5 56.4Q349.1 55.6 349.1 54.5L349.1 54.5Q349.1 53.4 349.5 52.6Q349.9 51.7 350.7 51.3Q351.5 50.8 352.5 50.8L352.5 50.8Q353.2 50.8 353.8 51.0Q354.4 51.3 354.9 51.7Q355.3 52.2 355.6 52.8Q355.8 53.5 355.8 54.4L355.8 54.4L355.8 54.9L351.0 54.9Q351.0 55.5 351.2 55.9L351.2 55.9Q351.4 56.3 351.8 56.5Q352.1 56.7 352.6 56.7L352.6 56.7Q353.0 56.7 353.2 56.6Q353.5 56.5 353.7 56.3Q353.9 56.1 354.0 55.9L354.0 55.9L355.7 56.2Q355.5 56.8 355.1 57.2Q354.7 57.7 354.1 57.9Q353.4 58.1 352.6 58.1ZM351.0 53.8L351.0 53.8L354.0 53.8Q354.0 53.4 353.8 53.1L353.8 53.1Q353.7 52.7 353.3 52.5Q353.0 52.2 352.5 52.2L352.5 52.2Q352.0 52.2 351.7 52.5Q351.3 52.7 351.1 53.1L351.1 53.1Q351.0 53.4 351.0 53.8Z M366.6 58L360.3 58L360.3 48.5L366.6 48.5L366.6 50.1L362.2 50.1L362.2 52.4L366.2 52.4L366.2 54.0L362.2 54.0L362.2 56.4L366.6 56.4L366.6 58ZM370.6 50.9L372.1 50.9L372.1 52.4L370.6 52.4L370.6 58L368.7 58L368.7 52.4L367.4 52.4L367.4 50.9L368.7 50.9L368.7 50.4Q368.7 49.6 369.0 49.1Q369.3 48.6 369.8 48.3Q370.3 48.1 371.0 48.1L371.0 48.1Q371.4 48.1 371.8 48.2Q372.2 48.2 372.3 48.3L372.3 48.3L372.0 49.7Q371.9 49.7 371.7 49.7Q371.5 49.6 371.4 49.6L371.4 49.6Q370.9 49.6 370.7 49.8Q370.6 50.0 370.6 50.4L370.6 50.4L370.6 50.9ZM375.7 50.9L377.2 50.9L377.2 52.4L375.7 52.4L375.7 58L373.8 58L373.8 52.4L372.6 52.4L372.6 50.9L373.8 50.9L373.8 50.4Q373.8 49.6 374.1 49.1Q374.4 48.6 375.0 48.3Q375.5 48.1 376.1 48.1L376.1 48.1Q376.6 48.1 377.0 48.2Q377.3 48.2 377.5 48.3L377.5 48.3L377.2 49.7Q377.0 49.7 376.9 49.7Q376.7 49.6 376.5 49.6L376.5 49.6Q376.1 49.6 375.9 49.8Q375.7 50.0 375.7 50.4L375.7 50.4L375.7 50.9ZM380.4 58L378.4 58L378.4 50.9L380.4 50.9L380.4 58ZM379.4 50.0L379.4 50.0Q379.0 50.0 378.7 49.7Q378.4 49.4 378.4 49.0L378.4 49.0Q378.4 48.6 378.7 48.3Q379.0 48.0 379.4 48.0L379.4 48.0Q379.8 48.0 380.1 48.3Q380.4 48.6 380.4 49.0L380.4 49.0Q380.4 49.4 380.1 49.7Q379.8 50.0 379.4 50.0ZM385.1 58.1L385.1 58.1Q384.1 58.1 383.3 57.7Q382.5 57.2 382.1 56.4Q381.7 55.6 381.7 54.5L381.7 54.5Q381.7 53.4 382.1 52.6Q382.5 51.7 383.3 51.3Q384.1 50.8 385.1 50.8L385.1 50.8Q385.8 50.8 386.3 51.0Q386.8 51.1 387.3 51.4Q387.7 51.8 387.9 52.2Q388.2 52.6 388.3 53.2L388.3 53.2L386.5 53.5Q386.5 53.2 386.4 53.0Q386.2 52.8 386.1 52.6Q385.9 52.5 385.7 52.4Q385.4 52.3 385.2 52.3L385.2 52.3Q384.7 52.3 384.3 52.6Q384.0 52.9 383.8 53.3Q383.6 53.8 383.6 54.5L383.6 54.5Q383.6 55.1 383.8 55.6Q384.0 56.1 384.3 56.4Q384.7 56.6 385.2 56.6L385.2 56.6Q385.4 56.6 385.7 56.6Q385.9 56.5 386.1 56.3Q386.3 56.1 386.4 55.9Q386.5 55.7 386.5 55.4L386.5 55.4L388.3 55.7Q388.2 56.3 387.9 56.7Q387.7 57.2 387.3 57.5Q386.9 57.8 386.3 58.0Q385.8 58.1 385.1 58.1ZM391.5 58L389.6 58L389.6 50.9L391.5 50.9L391.5 58ZM390.6 50.0L390.6 50.0Q390.1 50.0 389.8 49.7Q389.5 49.4 389.5 49.0L389.5 49.0Q389.5 48.6 389.8 48.3Q390.1 48.0 390.6 48.0L390.6 48.0Q391.0 48.0 391.3 48.3Q391.6 48.6 391.6 49.0L391.6 49.0Q391.6 49.4 391.3 49.7Q391.0 50.0 390.6 50.0ZM396.4 58.1L396.4 58.1Q395.3 58.1 394.5 57.7Q393.7 57.3 393.3 56.4Q392.8 55.6 392.8 54.5L392.8 54.5Q392.8 53.4 393.3 52.6Q393.7 51.7 394.5 51.3Q395.2 50.8 396.3 50.8L396.3 50.8Q397.0 50.8 397.6 51.0Q398.2 51.3 398.6 51.7Q399.1 52.2 399.3 52.8Q399.6 53.5 399.6 54.4L399.6 54.4L399.6 54.9L394.7 54.9Q394.8 55.5 394.9 55.9L394.9 55.9Q395.1 56.3 395.5 56.5Q395.9 56.7 396.4 56.7L396.4 56.7Q396.7 56.7 397.0 56.6Q397.3 56.5 397.5 56.3Q397.7 56.1 397.8 55.9L397.8 55.9L399.5 56.2Q399.3 56.8 398.9 57.2Q398.5 57.7 397.8 57.9Q397.2 58.1 396.4 58.1ZM394.7 53.8L394.7 53.8L397.8 53.8Q397.7 53.4 397.6 53.1L397.6 53.1Q397.4 52.7 397.1 52.5Q396.8 52.2 396.3 52.2L396.3 52.2Q395.8 52.2 395.4 52.5Q395.1 52.7 394.9 53.1L394.9 53.1Q394.8 53.4 394.7 53.8ZM402.8 53.9L402.8 53.9L402.8 58L400.9 58L400.9 50.9L402.7 50.9L402.7 52.4Q403.0 51.7 403.5 51.3L403.5 51.3Q404.0 50.8 404.9 50.8L404.9 50.8Q405.7 50.8 406.2 51.1Q406.8 51.5 407.1 52.1Q407.4 52.7 407.4 53.5L407.4 53.5L407.4 58L405.5 58L405.5 53.8Q405.5 53.2 405.1 52.8Q404.8 52.4 404.2 52.4L404.2 52.4Q403.8 52.4 403.5 52.6Q403.1 52.8 403.0 53.1Q402.8 53.4 402.8 53.9ZM411.2 50.9L412.5 50.9L412.5 52.4L411.2 52.4L411.2 55.9Q411.2 56.3 411.3 56.4Q411.5 56.6 411.8 56.6L411.8 56.6Q411.9 56.6 412.1 56.6Q412.3 56.5 412.4 56.5L412.4 56.5L412.7 57.9Q412.4 58.0 412.1 58.1Q411.8 58.1 411.5 58.1L411.5 58.1Q410.4 58.1 409.8 57.6Q409.3 57.1 409.3 56.1L409.3 56.1L409.3 52.4L408.3 52.4L408.3 50.9L409.3 50.9L409.3 49.2L411.2 49.2L411.2 50.9Z "/></g><mask id="satori_om-id-1-2"><rect x="275" y="67" width="158" height="15" fill="#fff"/></mask><g  ><path fill="rgba(180,165,255,0.6)" d="M278.9 79L276.0 79L276.0 71.0L278.8 71.0Q279.6 71.0 280.2 71.3Q280.7 71.6 281.0 72.1Q281.3 72.5 281.3 73.1L281.3 73.1Q281.3 73.6 281.1 74.0Q280.9 74.3 280.6 74.5Q280.3 74.7 280.0 74.8L280.0 74.8L280.0 74.9Q280.3 74.9 280.7 75.1Q281.1 75.4 281.3 75.8Q281.6 76.2 281.6 76.9L281.6 76.9Q281.6 77.5 281.3 78.0Q281.0 78.4 280.4 78.7Q279.8 79 278.9 79L278.9 79ZM277.0 75.4L277.0 78.1L278.9 78.1Q279.8 78.1 280.2 77.7Q280.6 77.4 280.6 76.9L280.6 76.9Q280.6 76.5 280.4 76.1Q280.2 75.8 279.8 75.6Q279.4 75.4 278.9 75.4L278.9 75.4L277.0 75.4ZM277.0 71.9L277.0 74.5L278.7 74.5Q279.2 74.5 279.5 74.3Q279.9 74.2 280.1 73.9Q280.3 73.6 280.3 73.1L280.3 73.1Q280.3 72.6 279.9 72.3Q279.6 71.9 278.8 71.9L278.8 71.9L277.0 71.9ZM285.1 79.1L285.1 79.1Q284.5 79.1 284.0 78.8Q283.6 78.6 283.3 78.1Q283.0 77.6 283.0 76.8L283.0 76.8L283.0 73.0L284.0 73.0L284.0 76.7Q284.0 77.4 284.4 77.8Q284.7 78.2 285.4 78.2L285.4 78.2Q285.8 78.2 286.1 78.0Q286.5 77.8 286.7 77.5Q286.9 77.1 286.9 76.6L286.9 76.6L286.9 73.0L287.9 73.0L287.9 79L286.9 79L286.9 77.9Q286.7 78.5 286.3 78.7L286.3 78.7Q285.7 79.1 285.1 79.1ZM290.5 79L289.6 79L289.6 73.0L290.5 73.0L290.5 79ZM290.0 72.0L290.0 72.0Q289.8 72.0 289.6 71.8Q289.4 71.6 289.4 71.4L289.4 71.4Q289.4 71.1 289.6 70.9Q289.8 70.7 290.0 70.7L290.0 70.7Q290.3 70.7 290.5 70.9Q290.7 71.1 290.7 71.4L290.7 71.4Q290.7 71.6 290.5 71.8Q290.3 72.0 290.0 72.0ZM292.2 71.0L293.2 71.0L293.2 79L292.2 79L292.2 71.0ZM296.0 73.0L297.2 73.0L297.2 73.8L296.0 73.8L296.0 77.4Q296.0 77.8 296.2 78.0Q296.3 78.2 296.7 78.2L296.7 78.2Q296.8 78.2 296.9 78.2Q297.1 78.2 297.2 78.2L297.2 78.2L297.4 79.0Q297.3 79.0 297.1 79.0Q296.9 79.1 296.7 79.1L296.7 79.1Q295.9 79.1 295.5 78.7Q295.0 78.3 295.0 77.5L295.0 77.5L295.0 73.8L294.1 73.8L294.1 73.0L295.0 73.0L295.0 71.6L296.0 71.6L296.0 73.0Z M303.0 73.0L304.4 73.0L304.4 73.8L303.0 73.8L303.0 79L302.0 79L302.0 73.8L300.8 73.8L300.8 73.0L302.0 73.0L302.0 72.2Q302.0 71.7 302.3 71.3Q302.5 71.0 302.9 70.8Q303.3 70.6 303.7 70.6L303.7 70.6Q304.1 70.6 304.3 70.7Q304.5 70.7 304.6 70.8L304.6 70.8L304.4 71.6Q304.3 71.6 304.2 71.6Q304.0 71.5 303.8 71.5L303.8 71.5Q303.4 71.5 303.2 71.7Q303.0 72.0 303.0 72.4L303.0 72.4L303.0 73.0ZM308.1 79.1L308.1 79.1Q307.3 79.1 306.7 78.7Q306.0 78.4 305.7 77.7Q305.4 77.0 305.4 76.0L305.4 76.0Q305.4 75.1 305.7 74.4Q306.0 73.7 306.7 73.3Q307.3 72.9 308.1 72.9L308.1 72.9Q308.9 72.9 309.5 73.3Q310.1 73.7 310.5 74.4Q310.8 75.1 310.8 76.0L310.8 76.0Q310.8 77.0 310.5 77.7Q310.1 78.4 309.5 78.7Q308.9 79.1 308.1 79.1ZM308.1 78.3L308.1 78.3Q308.7 78.3 309.1 78.0Q309.5 77.6 309.7 77.1Q309.9 76.6 309.9 76.0L309.9 76.0Q309.9 75.4 309.7 74.9Q309.5 74.4 309.1 74.1Q308.7 73.8 308.1 73.8L308.1 73.8Q307.5 73.8 307.1 74.1Q306.7 74.4 306.5 74.9Q306.3 75.4 306.3 76.0L306.3 76.0Q306.3 76.6 306.5 77.1Q306.7 77.6 307.1 78.0Q307.5 78.3 308.1 78.3ZM313.2 79L312.2 79L312.2 73.0L313.2 73.0L313.2 73.9L313.2 73.9Q313.4 73.5 313.8 73.2Q314.3 72.9 314.8 72.9L314.8 72.9Q314.9 72.9 315.0 72.9Q315.2 72.9 315.3 72.9L315.3 72.9L315.3 73.9Q315.2 73.9 315.1 73.9Q314.9 73.8 314.7 73.8L314.7 73.8Q314.3 73.8 313.9 74.0Q313.6 74.2 313.4 74.5Q313.2 74.8 313.2 75.2L313.2 75.2L313.2 79Z M321.9 79.1L321.9 79.1Q321.1 79.1 320.5 78.7Q319.9 78.4 319.5 77.7Q319.2 77.0 319.2 76.0L319.2 76.0Q319.2 75.1 319.5 74.4Q319.9 73.7 320.5 73.3Q321.1 72.9 321.9 72.9L321.9 72.9Q322.4 72.9 322.7 73.0Q323.1 73.1 323.4 73.4Q323.8 73.6 324.0 73.9Q324.2 74.2 324.3 74.6L324.3 74.6L323.4 74.8Q323.4 74.6 323.2 74.4Q323.1 74.2 322.9 74.1Q322.7 73.9 322.5 73.9Q322.2 73.8 321.9 73.8L321.9 73.8Q321.3 73.8 320.9 74.1Q320.5 74.4 320.4 74.9Q320.2 75.4 320.2 76.0L320.2 76.0Q320.2 76.6 320.4 77.1Q320.5 77.6 320.9 78.0Q321.3 78.3 321.9 78.3L321.9 78.3Q322.2 78.3 322.5 78.2Q322.7 78.1 322.9 78.0Q323.1 77.8 323.2 77.6Q323.4 77.4 323.4 77.2L323.4 77.2L324.4 77.4Q324.3 77.8 324.0 78.1Q323.8 78.5 323.5 78.7Q323.1 78.9 322.7 79.0Q322.4 79.1 321.9 79.1ZM328.2 79.1L328.2 79.1Q327.4 79.1 326.8 78.7Q326.2 78.4 325.8 77.7Q325.5 77.0 325.5 76.0L325.5 76.0Q325.5 75.1 325.8 74.4Q326.2 73.7 326.8 73.3Q327.4 72.9 328.2 72.9L328.2 72.9Q329.0 72.9 329.6 73.3Q330.3 73.7 330.6 74.4Q330.9 75.1 330.9 76.0L330.9 76.0Q330.9 77.0 330.6 77.7Q330.3 78.4 329.6 78.7Q329.0 79.1 328.2 79.1ZM328.2 78.3L328.2 78.3Q328.8 78.3 329.2 78.0Q329.6 77.6 329.8 77.1Q330.0 76.6 330.0 76.0L330.0 76.0Q330.0 75.4 329.8 74.9Q329.6 74.4 329.2 74.1Q328.8 73.8 328.2 73.8L328.2 73.8Q327.6 73.8 327.2 74.1Q326.8 74.4 326.6 74.9Q326.4 75.4 326.4 76.0L326.4 76.0Q326.4 76.6 326.6 77.1Q326.8 77.6 327.2 78.0Q327.6 78.3 328.2 78.3ZM333.3 75.4L333.3 75.4L333.3 79L332.4 79L332.4 73.0L333.3 73.0L333.3 74.1Q333.5 73.5 333.9 73.3L333.9 73.3Q334.4 72.9 335.1 72.9L335.1 72.9Q335.7 72.9 336.2 73.2Q336.6 73.4 336.9 73.9Q337.2 74.4 337.2 75.2L337.2 75.2L337.2 79L336.2 79L336.2 75.3Q336.2 74.6 335.8 74.2Q335.5 73.8 334.8 73.8L334.8 73.8Q334.4 73.8 334.1 74.0Q333.7 74.2 333.5 74.5Q333.3 74.9 333.3 75.4ZM340.9 79.1L340.9 79.1Q340.3 79.1 339.8 78.9Q339.3 78.8 339.0 78.4Q338.7 78.1 338.6 77.5L338.6 77.5L339.5 77.3Q339.6 77.8 340.0 78.0Q340.3 78.3 340.9 78.3L340.9 78.3Q341.5 78.3 341.9 78.0Q342.3 77.7 342.3 77.4L342.3 77.4Q342.3 77.1 342.0 76.9Q341.8 76.6 341.4 76.5L341.4 76.5L340.4 76.3Q339.6 76.1 339.2 75.7Q338.8 75.3 338.8 74.7L338.8 74.7Q338.8 74.2 339.1 73.8Q339.3 73.4 339.8 73.1Q340.4 72.9 341.0 72.9L341.0 72.9Q341.6 72.9 342.0 73.1Q342.5 73.3 342.7 73.6Q343.0 73.9 343.1 74.4L343.1 74.4L342.3 74.6Q342.1 74.3 341.9 74.0Q341.6 73.7 341.0 73.7L341.0 73.7Q340.5 73.7 340.1 74.0Q339.7 74.2 339.7 74.6L339.7 74.6Q339.7 74.9 340.0 75.1Q340.2 75.3 340.8 75.5L340.8 75.5L341.7 75.7Q342.5 75.9 342.9 76.3Q343.3 76.7 343.3 77.3L343.3 77.3Q343.3 77.8 343.0 78.2Q342.7 78.7 342.1 78.9Q341.6 79.1 340.9 79.1ZM345.8 73.0L347.0 73.0L347.0 73.8L345.8 73.8L345.8 77.4Q345.8 77.8 345.9 78.0Q346.1 78.2 346.5 78.2L346.5 78.2Q346.6 78.2 346.7 78.2Q346.9 78.2 347.0 78.2L347.0 78.2L347.2 79.0Q347.0 79.0 346.8 79.0Q346.7 79.1 346.5 79.1L346.5 79.1Q345.7 79.1 345.3 78.7Q344.8 78.3 344.8 77.5L344.8 77.5L344.8 73.8L343.9 73.8L343.9 73.0L344.8 73.0L344.8 71.6L345.8 71.6L345.8 73.0ZM349.2 79L348.3 79L348.3 73.0L349.2 73.0L349.2 73.9L349.3 73.9Q349.4 73.5 349.8 73.2Q350.3 72.9 350.8 72.9L350.8 72.9Q350.9 72.9 351.1 72.9Q351.2 72.9 351.3 72.9L351.3 72.9L351.3 73.9Q351.3 73.9 351.1 73.9Q350.9 73.8 350.7 73.8L350.7 73.8Q350.3 73.8 350.0 74.0Q349.6 74.2 349.4 74.5Q349.2 74.8 349.2 75.2L349.2 75.2L349.2 79ZM354.1 79.1L354.1 79.1Q353.5 79.1 353.0 78.9Q352.6 78.7 352.3 78.3Q352.0 77.9 352.0 77.3L352.0 77.3Q352.0 76.8 352.2 76.5Q352.4 76.1 352.8 75.9Q353.1 75.8 353.5 75.7Q353.9 75.6 354.4 75.5L354.4 75.5Q354.9 75.5 355.2 75.4Q355.6 75.4 355.7 75.3Q355.9 75.2 355.9 75.0L355.9 75.0L355.9 74.9Q355.9 74.6 355.8 74.3Q355.6 74.0 355.4 73.9Q355.1 73.8 354.7 73.8L354.7 73.8Q354.2 73.8 353.9 73.9Q353.6 74.0 353.4 74.2Q353.2 74.4 353.1 74.6L353.1 74.6L352.2 74.3Q352.4 73.8 352.8 73.5Q353.2 73.2 353.7 73.0Q354.2 72.9 354.6 72.9L354.6 72.9Q354.9 72.9 355.3 73.0Q355.7 73.1 356.1 73.3Q356.4 73.5 356.6 73.9Q356.9 74.3 356.9 75.0L356.9 75.0L356.9 79L355.9 79L355.9 78.2L355.9 78.2Q355.8 78.4 355.5 78.6Q355.3 78.8 354.9 79.0Q354.6 79.1 354.1 79.1ZM354.2 78.3L354.2 78.3Q354.8 78.3 355.2 78.1Q355.5 77.9 355.7 77.5Q355.9 77.2 355.9 76.8L355.9 76.8L355.9 76.0Q355.9 76.1 355.7 76.1Q355.5 76.2 355.2 76.2Q354.9 76.3 354.7 76.3Q354.5 76.3 354.3 76.3L354.3 76.3Q354.0 76.4 353.7 76.5Q353.4 76.6 353.2 76.8Q353.0 77.0 353.0 77.3L353.0 77.3Q353.0 77.7 353.2 77.9Q353.3 78.1 353.6 78.2Q353.9 78.3 354.2 78.3ZM359.5 79L358.6 79L358.6 73.0L359.5 73.0L359.5 79ZM359.1 72.0L359.1 72.0Q358.8 72.0 358.6 71.8Q358.4 71.6 358.4 71.4L358.4 71.4Q358.4 71.1 358.6 70.9Q358.8 70.7 359.1 70.7L359.1 70.7Q359.3 70.7 359.5 70.9Q359.7 71.1 359.7 71.4L359.7 71.4Q359.7 71.6 359.5 71.8Q359.3 72.0 359.1 72.0ZM362.2 75.4L362.2 75.4L362.2 79L361.2 79L361.2 73.0L362.2 73.0L362.2 74.1Q362.4 73.5 362.8 73.3L362.8 73.3Q363.3 72.9 364.0 72.9L364.0 72.9Q364.6 72.9 365.1 73.2Q365.5 73.4 365.8 73.9Q366.0 74.4 366.0 75.2L366.0 75.2L366.0 79L365.1 79L365.1 75.3Q365.1 74.6 364.7 74.2Q364.3 73.8 363.7 73.8L363.7 73.8Q363.3 73.8 362.9 74.0Q362.6 74.2 362.4 74.5Q362.2 74.9 362.2 75.4ZM370.3 79.1L370.3 79.1Q369.4 79.1 368.8 78.7Q368.1 78.4 367.8 77.7Q367.4 77.0 367.4 76.0Q367.4 75.1 367.8 74.4Q368.1 73.7 368.7 73.3Q369.3 72.9 370.1 72.9L370.1 72.9Q370.6 72.9 371.1 73.1Q371.6 73.2 371.9 73.6Q372.3 73.9 372.5 74.5Q372.8 75.1 372.8 75.9L372.8 75.9L372.8 76.3L368.4 76.3Q368.4 76.9 368.7 77.3L368.7 77.3Q368.9 77.8 369.3 78.0Q369.7 78.3 370.3 78.3L370.3 78.3Q370.6 78.3 370.9 78.2Q371.2 78.1 371.4 77.9Q371.6 77.7 371.7 77.3L371.7 77.3L372.7 77.6Q372.5 78.1 372.2 78.4Q371.9 78.7 371.4 78.9Q370.9 79.1 370.3 79.1ZM368.4 75.5L368.4 75.5L371.8 75.5Q371.7 75.1 371.6 74.8L371.6 74.8Q371.4 74.3 371.1 74.0Q370.7 73.8 370.1 73.8Q369.6 73.8 369.2 74.0Q368.8 74.3 368.6 74.7L368.6 74.7Q368.5 75.1 368.4 75.5ZM376.4 79.1L376.4 79.1Q375.7 79.1 375.1 78.7Q374.5 78.4 374.2 77.7Q373.9 77.0 373.9 76.0L373.9 76.0Q373.9 75.1 374.2 74.4Q374.5 73.7 375.1 73.3Q375.7 72.9 376.4 72.9L376.4 72.9Q377.0 72.9 377.3 73.1Q377.7 73.3 377.9 73.6Q378.0 73.8 378.1 74.0L378.1 74.0L378.2 74.0L378.2 71.0L379.2 71.0L379.2 79L378.3 79L378.3 78.1L378.1 78.1Q378.0 78.2 377.9 78.5Q377.7 78.7 377.3 78.9Q377.0 79.1 376.4 79.1ZM376.5 78.3L376.5 78.3Q377.1 78.3 377.5 78.0Q377.8 77.7 378.0 77.2Q378.2 76.7 378.2 76.0L378.2 76.0Q378.2 75.3 378.0 74.8Q377.9 74.3 377.5 74.1Q377.1 73.8 376.5 73.8L376.5 73.8Q376.0 73.8 375.6 74.1Q375.2 74.4 375.0 74.9Q374.8 75.4 374.8 76.0L374.8 76.0Q374.8 76.6 375.0 77.1Q375.2 77.7 375.6 78.0Q376.0 78.3 376.5 78.3Z M384.9 75.4L384.9 75.4L384.9 79L384.0 79L384.0 71.0L384.9 71.0L384.9 74.0Q385.2 73.5 385.6 73.3L385.6 73.3Q386.1 72.9 386.8 72.9L386.8 72.9Q387.4 72.9 387.8 73.2Q388.3 73.4 388.5 73.9Q388.8 74.4 388.8 75.2L388.8 75.2L388.8 79L387.8 79L387.8 75.3Q387.8 74.6 387.5 74.2Q387.1 73.8 386.5 73.8L386.5 73.8Q386.0 73.8 385.7 74.0Q385.3 74.2 385.1 74.5Q384.9 74.9 384.9 75.4ZM392.2 79.1L392.2 79.1Q391.6 79.1 391.1 78.9Q390.7 78.7 390.4 78.3Q390.1 77.9 390.1 77.3L390.1 77.3Q390.1 76.8 390.3 76.5Q390.5 76.1 390.9 75.9Q391.2 75.8 391.6 75.7Q392.0 75.6 392.5 75.5L392.5 75.5Q393.0 75.5 393.3 75.4Q393.7 75.4 393.8 75.3Q394.0 75.2 394.0 75.0L394.0 75.0L394.0 74.9Q394.0 74.6 393.9 74.3Q393.7 74.0 393.4 73.9Q393.2 73.8 392.7 73.8L392.7 73.8Q392.3 73.8 392.0 73.9Q391.7 74.0 391.5 74.2Q391.3 74.4 391.2 74.6L391.2 74.6L390.3 74.3Q390.5 73.8 390.9 73.5Q391.3 73.2 391.8 73.0Q392.3 72.9 392.7 72.9L392.7 72.9Q393.0 72.9 393.4 73.0Q393.8 73.1 394.1 73.3Q394.5 73.5 394.7 73.9Q395.0 74.3 395.0 75.0L395.0 75.0L395.0 79L394.0 79L394.0 78.2L393.9 78.2Q393.8 78.4 393.6 78.6Q393.4 78.8 393.0 79.0Q392.7 79.1 392.2 79.1ZM392.3 78.3L392.3 78.3Q392.9 78.3 393.2 78.1Q393.6 77.9 393.8 77.5Q394.0 77.2 394.0 76.8L394.0 76.8L394.0 76.0Q393.9 76.1 393.7 76.1Q393.5 76.2 393.3 76.2Q393.0 76.3 392.8 76.3Q392.6 76.3 392.4 76.3L392.4 76.3Q392.1 76.4 391.8 76.5Q391.5 76.6 391.3 76.8Q391.1 77.0 391.1 77.3L391.1 77.3Q391.1 77.7 391.3 77.9Q391.4 78.1 391.7 78.2Q392.0 78.3 392.3 78.3ZM397.6 79L396.7 79L396.7 73.0L397.6 73.0L397.6 73.9L397.7 73.9Q397.8 73.5 398.3 73.2Q398.7 72.9 399.2 72.9L399.2 72.9Q399.3 72.9 399.5 72.9Q399.6 72.9 399.7 72.9L399.7 72.9L399.7 73.9Q399.7 73.9 399.5 73.9Q399.3 73.8 399.1 73.8L399.1 73.8Q398.7 73.8 398.4 74.0Q398.0 74.2 397.8 74.5Q397.6 74.8 397.6 75.2L397.6 75.2L397.6 79ZM403.1 79.1L403.1 79.1Q402.3 79.1 401.7 78.7Q401.2 78.4 400.8 77.7Q400.5 77.0 400.5 76.0L400.5 76.0Q400.5 75.1 400.8 74.4Q401.2 73.7 401.7 73.3Q402.3 72.9 403.1 72.9L403.1 72.9Q403.6 72.9 404.0 73.1Q404.3 73.3 404.5 73.6Q404.7 73.8 404.8 74.0L404.8 74.0L404.9 74.0L404.9 71.0L405.8 71.0L405.8 79L404.9 79L404.9 78.1L404.8 78.1Q404.7 78.2 404.5 78.5Q404.3 78.7 404.0 78.9Q403.6 79.1 403.1 79.1ZM403.2 78.3L403.2 78.3Q403.7 78.3 404.1 78.0Q404.5 77.7 404.7 77.2Q404.9 76.7 404.9 76.0L404.9 76.0Q404.9 75.3 404.7 74.8Q404.5 74.3 404.1 74.1Q403.8 73.8 403.2 73.8L403.2 73.8Q402.6 73.8 402.2 74.1Q401.9 74.4 401.7 74.9Q401.5 75.4 401.5 76.0L401.5 76.0Q401.5 76.6 401.7 77.1Q401.9 77.7 402.3 78.0Q402.6 78.3 403.2 78.3ZM409.8 79L408.9 79L407.1 73.0L408.1 73.0L408.8 75.6Q409.0 76.2 409.1 76.8L409.1 76.8Q409.3 77.3 409.4 78.0L409.4 78.0Q409.5 77.4 409.6 76.9L409.6 76.9Q409.8 76.2 410.0 75.6L410.0 75.6L410.7 73.0L411.7 73.0L412.4 75.6Q412.6 76.2 412.7 76.8L412.7 76.8Q412.9 77.4 413.0 77.9L413.0 77.9Q413.1 77.4 413.2 76.9L413.2 76.9Q413.4 76.2 413.6 75.6L413.6 75.6L414.3 73.0L415.3 73.0L413.5 79L412.5 79L411.8 76.3Q411.6 75.9 411.5 75.4Q411.4 75.0 411.3 74.6L411.3 74.6Q411.2 74.3 411.2 74.1L411.2 74.1Q411.1 74.3 411.1 74.6L411.1 74.6Q411.0 75.0 410.9 75.4Q410.7 75.9 410.6 76.3L410.6 76.3L409.8 79ZM418.2 79.1L418.2 79.1Q417.7 79.1 417.2 78.9Q416.7 78.7 416.4 78.3Q416.2 77.9 416.2 77.3L416.2 77.3Q416.2 76.8 416.4 76.5Q416.6 76.1 416.9 75.9Q417.3 75.8 417.7 75.7Q418.1 75.6 418.5 75.5L418.5 75.5Q419.0 75.5 419.4 75.4Q419.7 75.4 419.9 75.3Q420.1 75.2 420.1 75.0L420.1 75.0L420.1 74.9Q420.1 74.6 419.9 74.3Q419.8 74.0 419.5 73.9Q419.2 73.8 418.8 73.8L418.8 73.8Q418.4 73.8 418.1 73.9Q417.8 74.0 417.6 74.2Q417.4 74.4 417.3 74.6L417.3 74.6L416.3 74.3Q416.6 73.8 417.0 73.5Q417.4 73.2 417.8 73.0Q418.3 72.9 418.8 72.9L418.8 72.9Q419.1 72.9 419.5 73.0Q419.8 73.1 420.2 73.3Q420.6 73.5 420.8 73.9Q421.0 74.3 421.0 75.0L421.0 75.0L421.0 79L420.1 79L420.1 78.2L420.0 78.2Q419.9 78.4 419.7 78.6Q419.5 78.8 419.1 79.0Q418.7 79.1 418.2 79.1ZM418.4 78.3L418.4 78.3Q418.9 78.3 419.3 78.1Q419.7 77.9 419.9 77.5Q420.1 77.2 420.1 76.8L420.1 76.8L420.1 76.0Q420.0 76.1 419.8 76.1Q419.6 76.2 419.3 76.2Q419.1 76.3 418.8 76.3Q418.6 76.3 418.5 76.3L418.5 76.3Q418.1 76.4 417.8 76.5Q417.5 76.6 417.3 76.8Q417.1 77.0 417.1 77.3L417.1 77.3Q417.1 77.7 417.3 77.9Q417.5 78.1 417.7 78.2Q418.0 78.3 418.4 78.3ZM423.7 79L422.7 79L422.7 73.0L423.7 73.0L423.7 73.9L423.7 73.9Q423.9 73.5 424.3 73.2Q424.7 72.9 425.3 72.9L425.3 72.9Q425.4 72.9 425.5 72.9Q425.7 72.9 425.8 72.9L425.8 72.9L425.8 73.9Q425.7 73.9 425.5 73.9Q425.4 73.8 425.2 73.8L425.2 73.8Q424.8 73.8 424.4 74.0Q424.1 74.2 423.9 74.5Q423.7 74.8 423.7 75.2L423.7 75.2L423.7 79ZM429.4 79.1L429.4 79.1Q428.5 79.1 427.9 78.7Q427.2 78.4 426.9 77.7Q426.6 77.0 426.6 76.0Q426.6 75.1 426.9 74.4Q427.2 73.7 427.8 73.3Q428.5 72.9 429.3 72.9L429.3 72.9Q429.7 72.9 430.2 73.1Q430.7 73.2 431.1 73.6Q431.4 73.9 431.7 74.5Q431.9 75.1 431.9 75.9L431.9 75.9L431.9 76.3L427.5 76.3Q427.6 76.9 427.8 77.3L427.8 77.3Q428.0 77.8 428.4 78.0Q428.8 78.3 429.4 78.3L429.4 78.3Q429.7 78.3 430.0 78.2Q430.3 78.1 430.5 77.9Q430.7 77.7 430.9 77.3L430.9 77.3L431.8 77.6Q431.6 78.1 431.3 78.4Q431.0 78.7 430.5 78.9Q430.0 79.1 429.4 79.1ZM427.5 75.5L427.5 75.5L430.9 75.5Q430.9 75.1 430.7 74.8L430.7 74.8Q430.5 74.3 430.2 74.0Q429.8 73.8 429.3 73.8Q428.7 73.8 428.3 74.0Q428.0 74.3 427.7 74.7L427.7 74.7Q427.6 75.1 427.5 75.5Z "/></g><mask id="satori_om-id-2"><rect x="466" y="29" width="172" height="53" fill="#fff"/></mask><mask id="satori_om-id-2-0"><rect x="547" y="29" width="10" height="10" fill="#fff"/></mask><path x="547" y="29" width="10" height="10" fill="#10b981" d="M552,29 h0 a5,5 0 0 1 5,5 v0 a5,5 0 0 1 -5,5 h0 a5,5 0 0 1 -5,-5 v0 a5,5 0 0 1 5,-5"/><mask id="satori_om-id-2-1"><rect x="511" y="45" width="83" height="16" fill="#fff"/></mask><g  ><path fill="#e0d8ff" d="M513.8 58L511.9 58L511.9 48.5L515.5 48.5Q516.6 48.5 517.4 49.0Q518.1 49.4 518.5 50.1Q518.9 50.8 518.9 51.7L518.9 51.7Q518.9 52.7 518.5 53.4Q518.1 54.1 517.4 54.5Q516.6 54.9 515.5 54.9L515.5 54.9L513.8 54.9L513.8 58ZM513.8 50.1L513.8 53.3L515.2 53.3Q515.8 53.3 516.2 53.1Q516.6 52.9 516.7 52.6Q516.9 52.2 516.9 51.7Q516.9 51.3 516.7 50.9Q516.6 50.5 516.2 50.3Q515.8 50.1 515.2 50.1L515.2 50.1L513.8 50.1ZM522.1 58L520.2 58L520.2 50.9L522.1 50.9L522.1 52.1L522.2 52.1Q522.3 51.5 522.8 51.1Q523.3 50.8 523.9 50.8L523.9 50.8Q524.0 50.8 524.2 50.8Q524.4 50.8 524.5 50.9L524.5 50.9L524.5 52.6Q524.4 52.5 524.1 52.5Q523.9 52.5 523.7 52.5L523.7 52.5Q523.2 52.5 522.9 52.7Q522.5 52.9 522.3 53.2Q522.1 53.5 522.1 54.0L522.1 54.0L522.1 58ZM527.4 58L525.5 58L525.5 50.9L527.4 50.9L527.4 58ZM526.5 50.0L526.5 50.0Q526.1 50.0 525.7 49.7Q525.4 49.4 525.4 49.0L525.4 49.0Q525.4 48.6 525.7 48.3Q526.1 48.0 526.5 48.0L526.5 48.0Q526.9 48.0 527.2 48.3Q527.5 48.6 527.5 49.0L527.5 49.0Q527.5 49.4 527.2 49.7Q526.9 50.0 526.5 50.0ZM533.2 58L531.1 58L528.4 50.9L530.5 50.9L531.7 54.6Q531.9 55.3 532.0 56.0L532.0 56.0Q532.1 56.3 532.2 56.5L532.2 56.5Q532.2 56.3 532.3 56.0L532.3 56.0Q532.4 55.3 532.7 54.6L532.7 54.6L533.8 50.9L535.8 50.9L533.2 58ZM538.8 58.1L538.8 58.1Q538.2 58.1 537.6 57.9Q537.1 57.7 536.8 57.2Q536.5 56.7 536.5 56.0L536.5 56.0Q536.5 55.4 536.7 55.0Q536.9 54.6 537.3 54.4Q537.7 54.1 538.1 54.0Q538.6 53.9 539.1 53.8L539.1 53.8Q539.8 53.8 540.1 53.7Q540.5 53.7 540.7 53.5Q540.9 53.4 540.9 53.2L540.9 53.2L540.9 53.2Q540.9 52.9 540.7 52.7Q540.6 52.4 540.4 52.3Q540.1 52.2 539.8 52.2L539.8 52.2Q539.4 52.2 539.1 52.3Q538.8 52.4 538.7 52.6Q538.5 52.8 538.4 53.0L538.4 53.0L536.7 52.8Q536.9 52.1 537.3 51.7Q537.7 51.3 538.3 51.0Q539.0 50.8 539.8 50.8L539.8 50.8Q540.3 50.8 540.9 51.0Q541.4 51.1 541.8 51.4Q542.3 51.7 542.5 52.1Q542.8 52.6 542.8 53.2L542.8 53.2L542.8 58L541.0 58L541.0 57.0L540.9 57.0Q540.7 57.3 540.4 57.6Q540.2 57.8 539.8 58.0Q539.4 58.1 538.8 58.1ZM539.4 56.8L539.4 56.8Q539.8 56.8 540.2 56.6Q540.5 56.4 540.7 56.1Q540.9 55.8 540.9 55.5L540.9 55.5L540.9 54.7Q540.8 54.8 540.6 54.8Q540.5 54.9 540.2 54.9Q540.0 54.9 539.8 55.0Q539.6 55.0 539.5 55.0L539.5 55.0Q539.1 55.1 538.9 55.2Q538.6 55.3 538.4 55.5Q538.3 55.7 538.3 56.0L538.3 56.0Q538.3 56.2 538.4 56.4Q538.6 56.6 538.8 56.7Q539.1 56.8 539.4 56.8ZM547.6 58.1L547.6 58.1Q546.5 58.1 545.7 57.7Q544.9 57.2 544.5 56.4Q544.1 55.6 544.1 54.5L544.1 54.5Q544.1 53.4 544.5 52.6Q544.9 51.7 545.7 51.3Q546.5 50.8 547.6 50.8L547.6 50.8Q548.2 50.8 548.7 51.0Q549.3 51.1 549.7 51.4Q550.1 51.8 550.4 52.2Q550.6 52.6 550.7 53.2L550.7 53.2L549.0 53.5Q548.9 53.2 548.8 53.0Q548.7 52.8 548.5 52.6Q548.3 52.5 548.1 52.4Q547.9 52.3 547.6 52.3L547.6 52.3Q547.1 52.3 546.7 52.6Q546.4 52.9 546.2 53.3Q546.0 53.8 546.0 54.5L546.0 54.5Q546.0 55.1 546.2 55.6Q546.4 56.1 546.7 56.4Q547.1 56.6 547.6 56.6L547.6 56.6Q547.9 56.6 548.1 56.6Q548.3 56.5 548.5 56.3Q548.7 56.1 548.8 55.9Q548.9 55.7 549.0 55.4L549.0 55.4L550.7 55.7Q550.6 56.3 550.4 56.7Q550.1 57.2 549.7 57.5Q549.3 57.8 548.7 58.0Q548.2 58.1 547.6 58.1ZM552.0 60.5L552.0 60.5L552.4 59.1L552.7 59.1Q553.0 59.2 553.3 59.2Q553.6 59.1 553.8 59.0Q554.0 58.8 554.0 58.4L554.0 58.4L554.1 58.0L551.4 50.9L553.5 50.9L554.6 54.6Q554.9 55.3 555.0 56.0L555.0 56.0Q555.0 56.2 555.1 56.5L555.1 56.5Q555.2 56.2 555.2 56.0L555.2 56.0Q555.4 55.3 555.6 54.6L555.6 54.6L556.9 50.9L558.9 50.9L555.8 58.8Q555.6 59.4 555.3 59.8Q555.0 60.2 554.4 60.5Q553.9 60.7 553.2 60.7L553.2 60.7Q552.9 60.7 552.5 60.7Q552.2 60.6 552.0 60.5ZM559.9 53.3L564.3 53.3L564.3 54.9L559.9 54.9L559.9 53.3ZM567.9 58L566.0 58L566.0 48.5L572.2 48.5L572.2 50.1L567.9 50.1L567.9 52.8L571.8 52.8L571.8 54.4L567.9 54.4L567.9 58ZM575.5 58L573.6 58L573.6 50.9L575.5 50.9L575.5 58ZM574.5 50.0L574.5 50.0Q574.1 50.0 573.8 49.7Q573.5 49.4 573.5 49.0L573.5 49.0Q573.5 48.6 573.8 48.3Q574.1 48.0 574.5 48.0L574.5 48.0Q575.0 48.0 575.3 48.3Q575.6 48.6 575.6 49.0L575.6 49.0Q575.6 49.4 575.3 49.7Q575.0 50.0 574.5 50.0ZM579.0 58L577.1 58L577.1 50.9L578.9 50.9L578.9 52.1L579.0 52.1Q579.2 51.5 579.7 51.1Q580.1 50.8 580.7 50.8L580.7 50.8Q580.9 50.8 581.1 50.8Q581.2 50.8 581.4 50.9L581.4 50.9L581.4 52.6Q581.2 52.5 581.0 52.5Q580.7 52.5 580.5 52.5L580.5 52.5Q580.1 52.5 579.7 52.7Q579.4 52.9 579.2 53.2Q579.0 53.5 579.0 54.0L579.0 54.0L579.0 58ZM585.2 58.1L585.2 58.1Q584.4 58.1 583.7 57.9Q583.0 57.7 582.6 57.2Q582.2 56.7 582.1 56.1L582.1 56.1L583.9 55.8Q584.0 56.2 584.3 56.5Q584.7 56.7 585.3 56.7L585.3 56.7Q585.8 56.7 586.1 56.5Q586.4 56.3 586.4 56.0L586.4 56.0Q586.4 55.7 586.2 55.6Q586.0 55.4 585.5 55.3L585.5 55.3L584.3 55.0Q583.3 54.8 582.8 54.3Q582.3 53.8 582.3 53.0L582.3 53.0Q582.3 52.3 582.6 51.8Q583.0 51.3 583.7 51.1Q584.3 50.8 585.2 50.8L585.2 50.8Q586.1 50.8 586.7 51.0Q587.3 51.3 587.7 51.7Q588.1 52.1 588.2 52.7L588.2 52.7L586.5 53.0Q586.4 52.6 586.1 52.4Q585.8 52.2 585.3 52.2L585.3 52.2Q584.8 52.2 584.5 52.4Q584.2 52.6 584.2 52.9L584.2 52.9Q584.2 53.2 584.4 53.4Q584.6 53.5 585.1 53.6L585.1 53.6L586.4 53.9Q587.4 54.1 587.9 54.6Q588.4 55.0 588.4 55.8L588.4 55.8Q588.4 56.5 588.0 57.0Q587.6 57.6 586.9 57.8Q586.1 58.1 585.2 58.1ZM591.9 50.9L593.2 50.9L593.2 52.4L591.9 52.4L591.9 55.9Q591.9 56.3 592.0 56.4Q592.2 56.6 592.5 56.6L592.5 56.6Q592.6 56.6 592.8 56.6Q593.0 56.5 593.1 56.5L593.1 56.5L593.4 57.9Q593.1 58.0 592.8 58.1Q592.5 58.1 592.2 58.1L592.2 58.1Q591.1 58.1 590.5 57.6Q590.0 57.1 590.0 56.1L590.0 56.1L590.0 52.4L589.0 52.4L589.0 50.9L590.0 50.9L590.0 49.2L591.9 49.2L591.9 50.9Z "/></g><mask id="satori_om-id-2-2"><rect x="466" y="67" width="172" height="15" fill="#fff"/></mask><g  ><path fill="rgba(180,165,255,0.6)" d="M471.7 79L467.0 79L467.0 71.0L468.0 71.0L468.0 78.1L471.7 78.1L471.7 79ZM475.5 79.1L475.5 79.1Q474.7 79.1 474.1 78.7Q473.5 78.4 473.1 77.7Q472.8 77.0 472.8 76.0L472.8 76.0Q472.8 75.1 473.1 74.4Q473.5 73.7 474.1 73.3Q474.7 72.9 475.5 72.9L475.5 72.9Q476.3 72.9 477.0 73.3Q477.6 73.7 477.9 74.4Q478.3 75.1 478.3 76.0L478.3 76.0Q478.3 77.0 477.9 77.7Q477.6 78.4 477.0 78.7Q476.3 79.1 475.5 79.1ZM475.5 78.3L475.5 78.3Q476.1 78.3 476.5 78.0Q476.9 77.6 477.1 77.1Q477.3 76.6 477.3 76.0L477.3 76.0Q477.3 75.4 477.1 74.9Q476.9 74.4 476.5 74.1Q476.1 73.8 475.5 73.8L475.5 73.8Q474.9 73.8 474.5 74.1Q474.1 74.4 473.9 74.9Q473.8 75.4 473.8 76.0L473.8 76.0Q473.8 76.6 473.9 77.1Q474.1 77.6 474.5 78.0Q474.9 78.3 475.5 78.3ZM482.1 79.1L482.1 79.1Q481.3 79.1 480.7 78.7Q480.1 78.4 479.7 77.7Q479.4 77.0 479.4 76.0L479.4 76.0Q479.4 75.1 479.7 74.4Q480.1 73.7 480.7 73.3Q481.3 72.9 482.1 72.9L482.1 72.9Q482.5 72.9 482.9 73.0Q483.3 73.1 483.6 73.4Q484.0 73.6 484.2 73.9Q484.4 74.2 484.5 74.6L484.5 74.6L483.6 74.8Q483.5 74.6 483.4 74.4Q483.3 74.2 483.1 74.1Q482.9 73.9 482.7 73.9Q482.4 73.8 482.1 73.8L482.1 73.8Q481.5 73.8 481.1 74.1Q480.7 74.4 480.5 74.9Q480.4 75.4 480.4 76.0L480.4 76.0Q480.4 76.6 480.5 77.1Q480.7 77.6 481.1 78.0Q481.5 78.3 482.1 78.3L482.1 78.3Q482.4 78.3 482.7 78.2Q482.9 78.1 483.1 78.0Q483.3 77.8 483.4 77.6Q483.6 77.4 483.6 77.2L483.6 77.2L484.6 77.4Q484.4 77.8 484.2 78.1Q484.0 78.5 483.7 78.7Q483.3 78.9 482.9 79.0Q482.5 79.1 482.1 79.1ZM487.6 79.1L487.6 79.1Q487.1 79.1 486.6 78.9Q486.1 78.7 485.9 78.3Q485.6 77.9 485.6 77.3L485.6 77.3Q485.6 76.8 485.8 76.5Q486.0 76.1 486.3 75.9Q486.7 75.8 487.1 75.7Q487.5 75.6 487.9 75.5L487.9 75.5Q488.5 75.5 488.8 75.4Q489.1 75.4 489.3 75.3Q489.5 75.2 489.5 75.0L489.5 75.0L489.5 74.9Q489.5 74.6 489.3 74.3Q489.2 74.0 488.9 73.9Q488.6 73.8 488.2 73.8L488.2 73.8Q487.8 73.8 487.5 73.9Q487.2 74.0 487.0 74.2Q486.8 74.4 486.7 74.6L486.7 74.6L485.8 74.3Q486.0 73.8 486.4 73.5Q486.8 73.2 487.2 73.0Q487.7 72.9 488.2 72.9L488.2 72.9Q488.5 72.9 488.9 73.0Q489.2 73.1 489.6 73.3Q490.0 73.5 490.2 73.9Q490.4 74.3 490.4 75.0L490.4 75.0L490.4 79L489.5 79L489.5 78.2L489.4 78.2Q489.3 78.4 489.1 78.6Q488.9 78.8 488.5 79.0Q488.1 79.1 487.6 79.1ZM487.8 78.3L487.8 78.3Q488.3 78.3 488.7 78.1Q489.1 77.9 489.3 77.5Q489.5 77.2 489.5 76.8L489.5 76.8L489.5 76.0Q489.4 76.1 489.2 76.1Q489.0 76.2 488.7 76.2Q488.5 76.3 488.3 76.3Q488.0 76.3 487.9 76.3L487.9 76.3Q487.5 76.4 487.2 76.5Q486.9 76.6 486.7 76.8Q486.6 77.0 486.6 77.3L486.6 77.3Q486.6 77.7 486.7 77.9Q486.9 78.1 487.2 78.2Q487.4 78.3 487.8 78.3ZM492.1 71.0L493.1 71.0L493.1 79L492.1 79L492.1 71.0Z M498.4 79L497.3 79L500.2 71.0L501.4 71.0L504.3 79L503.3 79L502.5 76.8L499.2 76.8L498.4 79ZM499.5 75.9L502.2 75.9L501.6 74.3Q501.4 73.8 501.2 73.2L501.2 73.2Q501.0 72.6 500.8 71.8L500.8 71.8Q500.6 72.6 500.4 73.2L500.4 73.2Q500.2 73.8 500.0 74.3L500.0 74.3L499.5 75.9ZM505.6 71.0L506.6 71.0L506.6 79L505.6 79L505.6 71.0Z M510.7 75.1L521.7 75.1L521.7 76.0L510.7 76.0L510.7 75.1Z M526.6 75.4L526.6 75.4L526.6 79L525.6 79L525.6 73.0L526.5 73.0L526.5 74.1Q526.8 73.5 527.2 73.3L527.2 73.3Q527.7 72.9 528.4 72.9L528.4 72.9Q529.0 72.9 529.4 73.2Q529.9 73.4 530.2 73.9Q530.4 74.4 530.4 75.2L530.4 75.2L530.4 79L529.4 79L529.4 75.3Q529.4 74.6 529.1 74.2Q528.7 73.8 528.1 73.8L528.1 73.8Q527.7 73.8 527.3 74.0Q527.0 74.2 526.8 74.5Q526.6 74.9 526.6 75.4ZM534.6 79.1L534.6 79.1Q533.7 79.1 533.1 78.7Q532.5 78.4 532.2 77.7Q531.8 77.0 531.8 76.0L531.8 76.0Q531.8 75.1 532.2 74.4Q532.5 73.7 533.1 73.3Q533.7 72.9 534.6 72.9L534.6 72.9Q535.4 72.9 536.0 73.3Q536.6 73.7 537.0 74.4Q537.3 75.1 537.3 76.0L537.3 76.0Q537.3 77.0 537.0 77.7Q536.6 78.4 536.0 78.7Q535.4 79.1 534.6 79.1ZM534.6 78.3L534.6 78.3Q535.2 78.3 535.6 78.0Q535.9 77.6 536.1 77.1Q536.3 76.6 536.3 76.0L536.3 76.0Q536.3 75.4 536.1 74.9Q535.9 74.4 535.6 74.1Q535.2 73.8 534.6 73.8L534.6 73.8Q534.0 73.8 533.6 74.1Q533.2 74.4 533.0 74.9Q532.8 75.4 532.8 76.0L532.8 76.0Q532.8 76.6 533.0 77.1Q533.2 77.6 533.6 78.0Q534.0 78.3 534.6 78.3Z M544.2 79.1L544.2 79.1Q543.4 79.1 542.8 78.7Q542.2 78.4 541.9 77.7Q541.5 77.0 541.5 76.0L541.5 76.0Q541.5 75.1 541.9 74.4Q542.2 73.7 542.8 73.3Q543.4 72.9 544.2 72.9L544.2 72.9Q544.7 72.9 545.1 73.0Q545.5 73.1 545.8 73.4Q546.1 73.6 546.3 73.9Q546.6 74.2 546.7 74.6L546.7 74.6L545.8 74.8Q545.7 74.6 545.6 74.4Q545.4 74.2 545.2 74.1Q545.0 73.9 544.8 73.9Q544.5 73.8 544.2 73.8L544.2 73.8Q543.6 73.8 543.3 74.1Q542.9 74.4 542.7 74.9Q542.5 75.4 542.5 76.0L542.5 76.0Q542.5 76.6 542.7 77.1Q542.9 77.6 543.3 78.0Q543.6 78.3 544.2 78.3L544.2 78.3Q544.5 78.3 544.8 78.2Q545.1 78.1 545.2 78.0Q545.4 77.8 545.6 77.6Q545.7 77.4 545.8 77.2L545.8 77.2L546.7 77.4Q546.6 77.8 546.3 78.1Q546.1 78.5 545.8 78.7Q545.5 78.9 545.1 79.0Q544.7 79.1 544.2 79.1ZM548.1 71.0L549.1 71.0L549.1 79L548.1 79L548.1 71.0ZM553.2 79.1L553.2 79.1Q552.4 79.1 551.8 78.7Q551.1 78.4 550.8 77.7Q550.5 77.0 550.5 76.0L550.5 76.0Q550.5 75.1 550.8 74.4Q551.1 73.7 551.8 73.3Q552.4 72.9 553.2 72.9L553.2 72.9Q554.0 72.9 554.6 73.3Q555.3 73.7 555.6 74.4Q555.9 75.1 555.9 76.0L555.9 76.0Q555.9 77.0 555.6 77.7Q555.3 78.4 554.6 78.7Q554.0 79.1 553.2 79.1ZM553.2 78.3L553.2 78.3Q553.8 78.3 554.2 78.0Q554.6 77.6 554.8 77.1Q555.0 76.6 555.0 76.0L555.0 76.0Q555.0 75.4 554.8 74.9Q554.6 74.4 554.2 74.1Q553.8 73.8 553.2 73.8L553.2 73.8Q552.6 73.8 552.2 74.1Q551.8 74.4 551.6 74.9Q551.4 75.4 551.4 76.0L551.4 76.0Q551.4 76.6 551.6 77.1Q551.8 77.6 552.2 78.0Q552.6 78.3 553.2 78.3ZM559.4 79.1L559.4 79.1Q558.8 79.1 558.3 78.8Q557.9 78.6 557.6 78.1Q557.3 77.6 557.3 76.8L557.3 76.8L557.3 73.0L558.3 73.0L558.3 76.7Q558.3 77.4 558.7 77.8Q559.0 78.2 559.7 78.2L559.7 78.2Q560.1 78.2 560.4 78.0Q560.8 77.8 561.0 77.5Q561.2 77.1 561.2 76.6L561.2 76.6L561.2 73.0L562.2 73.0L562.2 79L561.2 79L561.2 77.9Q561.0 78.5 560.6 78.7L560.6 78.7Q560.0 79.1 559.4 79.1ZM566.1 79.1L566.1 79.1Q565.4 79.1 564.8 78.7Q564.2 78.4 563.9 77.7Q563.6 77.0 563.6 76.0L563.6 76.0Q563.6 75.1 563.9 74.4Q564.2 73.7 564.8 73.3Q565.4 72.9 566.1 72.9L566.1 72.9Q566.7 72.9 567.0 73.1Q567.4 73.3 567.6 73.6Q567.8 73.8 567.8 74.0L567.8 74.0L567.9 74.0L567.9 71.0L568.9 71.0L568.9 79L568.0 79L568.0 78.1L567.8 78.1Q567.8 78.2 567.6 78.5Q567.4 78.7 567.0 78.9Q566.7 79.1 566.1 79.1ZM566.2 78.3L566.2 78.3Q566.8 78.3 567.2 78.0Q567.5 77.7 567.7 77.2Q567.9 76.7 567.9 76.0L567.9 76.0Q567.9 75.3 567.7 74.8Q567.6 74.3 567.2 74.1Q566.8 73.8 566.2 73.8L566.2 73.8Q565.7 73.8 565.3 74.1Q564.9 74.4 564.7 74.9Q564.5 75.4 564.5 76.0L564.5 76.0Q564.5 76.6 564.7 77.1Q564.9 77.7 565.3 78.0Q565.7 78.3 566.2 78.3Z M575.9 79.1L575.9 79.1Q575.2 79.1 574.6 78.7Q574.0 78.4 573.7 77.7Q573.4 77.0 573.4 76.0L573.4 76.0Q573.4 75.1 573.7 74.4Q574.0 73.7 574.6 73.3Q575.2 72.9 575.9 72.9L575.9 72.9Q576.5 72.9 576.9 73.1Q577.2 73.3 577.4 73.6Q577.6 73.8 577.7 74.0L577.7 74.0L577.8 74.0L577.8 71.0L578.7 71.0L578.7 79L577.8 79L577.8 78.1L577.7 78.1Q577.6 78.2 577.4 78.5Q577.2 78.7 576.9 78.9Q576.5 79.1 575.9 79.1ZM576.1 78.3L576.1 78.3Q576.6 78.3 577.0 78.0Q577.4 77.7 577.6 77.2Q577.8 76.7 577.8 76.0L577.8 76.0Q577.8 75.3 577.6 74.8Q577.4 74.3 577.0 74.1Q576.6 73.8 576.1 73.8L576.1 73.8Q575.5 73.8 575.1 74.1Q574.7 74.4 574.6 74.9Q574.4 75.4 574.4 76.0L574.4 76.0Q574.4 76.6 574.6 77.1Q574.8 77.7 575.1 78.0Q575.5 78.3 576.1 78.3ZM582.9 79.1L582.9 79.1Q582.1 79.1 581.4 78.7Q580.8 78.4 580.5 77.7Q580.1 77.0 580.1 76.0Q580.1 75.1 580.5 74.4Q580.8 73.7 581.4 73.3Q582.0 72.9 582.8 72.9L582.8 72.9Q583.3 72.9 583.8 73.1Q584.2 73.2 584.6 73.6Q585.0 73.9 585.2 74.5Q585.4 75.1 585.4 75.9L585.4 75.9L585.4 76.3L581.1 76.3Q581.1 76.9 581.3 77.3L581.3 77.3Q581.6 77.8 582.0 78.0Q582.4 78.3 582.9 78.3L582.9 78.3Q583.3 78.3 583.6 78.2Q583.9 78.1 584.1 77.9Q584.3 77.7 584.4 77.3L584.4 77.3L585.3 77.6Q585.2 78.1 584.9 78.4Q584.5 78.7 584.0 78.9Q583.6 79.1 582.9 79.1ZM581.1 75.5L581.1 75.5L584.5 75.5Q584.4 75.1 584.3 74.8L584.3 74.8Q584.1 74.3 583.7 74.0Q583.4 73.8 582.8 73.8Q582.3 73.8 581.9 74.0Q581.5 74.3 581.3 74.7L581.3 74.7Q581.1 75.1 581.1 75.5ZM587.8 81.2L586.8 81.2L586.8 73.0L587.8 73.0L587.8 74.0L587.9 74.0Q588.0 73.8 588.2 73.6Q588.3 73.3 588.7 73.1Q589.0 72.9 589.6 72.9L589.6 72.9Q590.4 72.9 590.9 73.3Q591.5 73.7 591.8 74.4Q592.2 75.1 592.2 76.0L592.2 76.0Q592.2 77.0 591.8 77.7Q591.5 78.4 590.9 78.7Q590.4 79.1 589.6 79.1L589.6 79.1Q589.0 79.1 588.7 78.9Q588.3 78.7 588.2 78.5Q588.0 78.2 587.9 78.1L587.9 78.1L587.8 78.1L587.8 81.2ZM589.5 78.3L589.5 78.3Q590.0 78.3 590.4 78.0Q590.8 77.7 591.0 77.1Q591.2 76.6 591.2 76.0L591.2 76.0Q591.2 75.4 591.0 74.9Q590.8 74.4 590.4 74.1Q590.0 73.8 589.5 73.8L589.5 73.8Q588.9 73.8 588.5 74.1Q588.2 74.3 588.0 74.8Q587.8 75.3 587.8 76.0L587.8 76.0Q587.8 76.7 588.0 77.2Q588.2 77.7 588.5 78.0Q588.9 78.3 589.5 78.3ZM596.1 79.1L596.1 79.1Q595.2 79.1 594.6 78.7Q594.0 78.4 593.6 77.7Q593.3 77.0 593.3 76.0Q593.3 75.1 593.6 74.4Q593.9 73.7 594.5 73.3Q595.2 72.9 596.0 72.9L596.0 72.9Q596.5 72.9 596.9 73.1Q597.4 73.2 597.8 73.6Q598.1 73.9 598.4 74.5Q598.6 75.1 598.6 75.9L598.6 75.9L598.6 76.3L594.3 76.3Q594.3 76.9 594.5 77.3L594.5 77.3Q594.7 77.8 595.1 78.0Q595.5 78.3 596.1 78.3L596.1 78.3Q596.4 78.3 596.7 78.2Q597.0 78.1 597.2 77.9Q597.4 77.7 597.6 77.3L597.6 77.3L598.5 77.6Q598.4 78.1 598.0 78.4Q597.7 78.7 597.2 78.9Q596.7 79.1 596.1 79.1ZM594.3 75.5L594.3 75.5L597.6 75.5Q597.6 75.1 597.4 74.8L597.4 74.8Q597.2 74.3 596.9 74.0Q596.5 73.8 596.0 73.8Q595.4 73.8 595.0 74.0Q594.7 74.3 594.5 74.7L594.5 74.7Q594.3 75.1 594.3 75.5ZM600.9 75.4L600.9 75.4L600.9 79L600.0 79L600.0 73.0L600.9 73.0L600.9 74.1Q601.2 73.5 601.6 73.3L601.6 73.3Q602.1 72.9 602.7 72.9L602.7 72.9Q603.4 72.9 603.8 73.2Q604.3 73.4 604.5 73.9Q604.8 74.4 604.8 75.2L604.8 75.2L604.8 79L603.8 79L603.8 75.3Q603.8 74.6 603.4 74.2Q603.1 73.8 602.5 73.8L602.5 73.8Q602.0 73.8 601.7 74.0Q601.3 74.2 601.1 74.5Q600.9 74.9 600.9 75.4ZM608.7 79.1L608.7 79.1Q608.0 79.1 607.4 78.7Q606.8 78.4 606.5 77.7Q606.2 77.0 606.2 76.0L606.2 76.0Q606.2 75.1 606.5 74.4Q606.8 73.7 607.4 73.3Q608.0 72.9 608.7 72.9L608.7 72.9Q609.3 72.9 609.7 73.1Q610.0 73.3 610.2 73.6Q610.4 73.8 610.5 74.0L610.5 74.0L610.5 74.0L610.5 71.0L611.5 71.0L611.5 79L610.6 79L610.6 78.1L610.5 78.1Q610.4 78.2 610.2 78.5Q610.0 78.7 609.6 78.9Q609.3 79.1 608.7 79.1ZM608.9 78.3L608.9 78.3Q609.4 78.3 609.8 78.0Q610.2 77.7 610.4 77.2Q610.6 76.7 610.6 76.0L610.6 76.0Q610.6 75.3 610.4 74.8Q610.2 74.3 609.8 74.1Q609.4 73.8 608.9 73.8L608.9 73.8Q608.3 73.8 607.9 74.1Q607.5 74.4 607.4 74.9Q607.2 75.4 607.2 76.0L607.2 76.0Q607.2 76.6 607.4 77.1Q607.5 77.7 607.9 78.0Q608.3 78.3 608.9 78.3ZM615.7 79.1L615.7 79.1Q614.9 79.1 614.2 78.7Q613.6 78.4 613.3 77.7Q612.9 77.0 612.9 76.0Q612.9 75.1 613.3 74.4Q613.6 73.7 614.2 73.3Q614.8 72.9 615.6 72.9L615.6 72.9Q616.1 72.9 616.6 73.1Q617.0 73.2 617.4 73.6Q617.8 73.9 618.0 74.5Q618.2 75.1 618.2 75.9L618.2 75.9L618.2 76.3L613.9 76.3Q613.9 76.9 614.1 77.3L614.1 77.3Q614.4 77.8 614.8 78.0Q615.2 78.3 615.7 78.3L615.7 78.3Q616.1 78.3 616.4 78.2Q616.7 78.1 616.9 77.9Q617.1 77.7 617.2 77.3L617.2 77.3L618.1 77.6Q618.0 78.1 617.7 78.4Q617.3 78.7 616.8 78.9Q616.4 79.1 615.7 79.1ZM613.9 75.5L613.9 75.5L617.3 75.5Q617.2 75.1 617.1 74.8L617.1 74.8Q616.9 74.3 616.5 74.0Q616.2 73.8 615.6 73.8Q615.1 73.8 614.7 74.0Q614.3 74.3 614.1 74.7L614.1 74.7Q613.9 75.1 613.9 75.5ZM620.6 75.4L620.6 75.4L620.6 79L619.6 79L619.6 73.0L620.6 73.0L620.6 74.1Q620.8 73.5 621.2 73.3L621.2 73.3Q621.7 72.9 622.4 72.9L622.4 72.9Q623.0 72.9 623.5 73.2Q623.9 73.4 624.2 73.9Q624.4 74.4 624.4 75.2L624.4 75.2L624.4 79L623.5 79L623.5 75.3Q623.5 74.6 623.1 74.2Q622.7 73.8 622.1 73.8L622.1 73.8Q621.7 73.8 621.3 74.0Q621.0 74.2 620.8 74.5Q620.6 74.9 620.6 75.4ZM628.6 79.1L628.6 79.1Q627.8 79.1 627.1 78.7Q626.5 78.4 626.2 77.7Q625.8 77.0 625.8 76.0L625.8 76.0Q625.8 75.1 626.2 74.4Q626.5 73.7 627.1 73.3Q627.8 72.9 628.6 72.9L628.6 72.9Q629.0 72.9 629.4 73.0Q629.8 73.1 630.1 73.4Q630.4 73.6 630.6 73.9Q630.9 74.2 631 74.6L631 74.6L630.1 74.8Q630.0 74.6 629.9 74.4Q629.7 74.2 629.5 74.1Q629.4 73.9 629.1 73.9Q628.9 73.8 628.6 73.8L628.6 73.8Q628.0 73.8 627.6 74.1Q627.2 74.4 627.0 74.9Q626.8 75.4 626.8 76.0L626.8 76.0Q626.8 76.6 627.0 77.1Q627.2 77.6 627.6 78.0Q628.0 78.3 628.6 78.3L628.6 78.3Q628.9 78.3 629.1 78.2Q629.4 78.1 629.6 78.0Q629.8 77.8 629.9 77.6Q630.0 77.4 630.1 77.2L630.1 77.2L631.0 77.4Q630.9 77.8 630.7 78.1Q630.4 78.5 630.1 78.7Q629.8 78.9 629.4 79.0Q629.0 79.1 628.6 79.1ZM632.3 81.2L632.3 81.2L632.6 80.3L632.7 80.4Q633.0 80.4 633.2 80.4Q633.4 80.4 633.6 80.2Q633.8 80.0 634.0 79.5L634.0 79.5L634.1 79.0L631.8 73.0L632.9 73.0L634.2 76.6Q634.4 77.1 634.5 77.7L634.5 77.7Q634.6 77.9 634.6 78.1L634.6 78.1Q634.7 77.9 634.8 77.7L634.8 77.7Q634.9 77.1 635.1 76.6L635.1 76.6L636.4 73.0L637.5 73.0L634.8 79.9Q634.6 80.4 634.4 80.7Q634.1 81.0 633.8 81.1Q633.4 81.3 633.0 81.3L633.0 81.3Q632.8 81.3 632.6 81.3Q632.4 81.2 632.3 81.2Z "/></g><mask id="satori_om-id-3"><rect x="671" y="29" width="132" height="53" fill="#fff"/></mask><mask id="satori_om-id-3-0"><rect x="732" y="29" width="10" height="10" fill="#fff"/></mask><path x="732" y="29" width="10" height="10" fill="#f59e0b" d="M737,29 h0 a5,5 0 0 1 5,5 v0 a5,5 0 0 1 -5,5 h0 a5,5 0 0 1 -5,-5 v0 a5,5 0 0 1 5,-5"/><mask id="satori_om-id-3-1"><rect x="675" y="45" width="124" height="16" fill="#fff"/></mask><g  ><path fill="#e0d8ff" d="M681.2 58L678.6 58L675.3 48.5L677.5 48.5L679.0 53.1Q679.2 54.0 679.5 55.0L679.5 55.0Q679.7 55.7 679.9 56.4L679.9 56.4Q680.1 55.7 680.3 55.0L680.3 55.0Q680.5 54.0 680.8 53.1L680.8 53.1L682.3 48.5L684.4 48.5L681.2 58ZM687.5 58L685.6 58L685.6 48.5L689.3 48.5Q690.3 48.5 691.1 48.9Q691.8 49.3 692.2 50.0Q692.6 50.7 692.6 51.6Q692.6 52.6 692.2 53.2Q691.8 53.9 691.1 54.3L691.1 54.3Q691.0 54.3 691.0 54.3L691.0 54.3L693.0 58L690.8 58L689.0 54.6L687.5 54.6L687.5 58ZM687.5 50.1L687.5 53.1L688.9 53.1Q689.5 53.1 689.9 52.9Q690.3 52.7 690.4 52.4Q690.6 52.1 690.6 51.6L690.6 51.6Q690.6 51.1 690.4 50.8Q690.3 50.5 689.9 50.3Q689.5 50.1 688.9 50.1L688.9 50.1L687.5 50.1Z M700.0 58.1L700.0 58.1Q699.0 58.1 698.3 57.8Q697.6 57.4 697.2 56.8Q696.8 56.2 696.8 55.5L696.8 55.5Q696.8 54.9 697.1 54.5Q697.3 54.1 697.7 53.7L697.7 53.7Q698.1 53.4 698.6 53.0L698.6 53.0Q698.5 53.0 698.5 52.9L698.5 52.9Q698.1 52.5 697.9 51.9Q697.7 51.4 697.7 50.8L697.7 50.8Q697.7 50.1 698.0 49.6Q698.3 49.1 698.9 48.7Q699.5 48.4 700.2 48.4L700.2 48.4Q701.0 48.4 701.5 48.7Q702.1 49.0 702.4 49.5Q702.7 50.0 702.7 50.7L702.7 50.7Q702.7 51.1 702.5 51.5Q702.4 51.9 702.1 52.2Q701.8 52.5 701.4 52.8L701.4 52.8L700.8 53.2L702.4 55.1Q702.5 54.9 702.6 54.7L702.6 54.7Q702.8 54.1 702.8 53.4L702.8 53.4L704.4 53.4Q704.4 54.3 704.2 55.0Q704.1 55.7 703.7 56.2L703.7 56.2Q703.7 56.3 703.6 56.4L703.6 56.4L705.0 58L703.0 58L702.4 57.4Q701.9 57.7 701.3 57.9L701.3 57.9Q700.6 58.1 700.0 58.1ZM701.4 56.2L699.6 54.2L699.5 54.2Q699.1 54.5 698.9 54.8Q698.7 55.1 698.7 55.4L698.7 55.4Q698.7 55.8 698.9 56.1Q699.0 56.3 699.3 56.5Q699.6 56.6 700.1 56.6L700.1 56.6Q700.6 56.6 701.1 56.4L701.1 56.4Q701.2 56.3 701.4 56.2L701.4 56.2ZM699.9 52.1L699.9 52.1L700.4 51.8Q700.6 51.7 700.8 51.5Q700.9 51.3 701.0 51.1Q701.1 51.0 701.1 50.7L701.1 50.7Q701.1 50.4 700.9 50.2Q700.7 50.0 700.2 50.0L700.2 50.0Q700.0 50.0 699.7 50.1Q699.5 50.2 699.4 50.4Q699.3 50.6 699.3 50.8L699.3 50.8Q699.3 51.2 699.5 51.5Q699.6 51.8 699.9 52.1L699.9 52.1Q699.9 52.1 699.9 52.1Z M710.9 58L709.0 58L709.0 48.5L712.0 48.5L713.5 52.9Q713.6 53.2 713.7 53.7Q713.8 54.2 714.0 54.7L714.0 54.7Q714.1 55.3 714.2 55.8L714.2 55.8Q714.3 55.3 714.4 54.7L714.4 54.7Q714.6 54.2 714.7 53.7Q714.8 53.2 714.9 52.9L714.9 52.9L716.4 48.5L719.4 48.5L719.4 58L717.4 58L717.4 53.5Q717.4 53.2 717.5 52.8Q717.5 52.3 717.5 51.8Q717.5 51.2 717.5 50.7L717.5 50.7Q717.5 50.4 717.5 50.2L717.5 50.2Q717.5 50.5 717.4 50.8L717.4 50.8Q717.2 51.3 717.1 51.8Q716.9 52.4 716.8 52.8Q716.7 53.3 716.6 53.5L716.6 53.5L715.0 58L713.4 58L711.8 53.5Q711.7 53.3 711.6 52.8Q711.4 52.4 711.3 51.9Q711.1 51.3 711.0 50.8L711.0 50.8Q710.9 50.5 710.8 50.3L710.8 50.3Q710.8 50.5 710.9 50.7L710.9 50.7Q710.9 51.2 710.9 51.7Q710.9 52.3 710.9 52.8Q710.9 53.2 710.9 53.5L710.9 53.5L710.9 58ZM723.0 58.1L723.0 58.1Q722.4 58.1 721.8 57.9Q721.3 57.7 721.0 57.2Q720.7 56.7 720.7 56.0L720.7 56.0Q720.7 55.4 720.9 55.0Q721.1 54.6 721.5 54.4Q721.9 54.1 722.4 54.0Q722.8 53.9 723.4 53.8L723.4 53.8Q724.0 53.8 724.3 53.7Q724.7 53.7 724.9 53.5Q725.1 53.4 725.1 53.2L725.1 53.2L725.1 53.2Q725.1 52.9 724.9 52.7Q724.8 52.4 724.6 52.3Q724.3 52.2 724.0 52.2L724.0 52.2Q723.6 52.2 723.3 52.3Q723.1 52.4 722.9 52.6Q722.7 52.8 722.6 53.0L722.6 53.0L720.9 52.8Q721.1 52.1 721.5 51.7Q721.9 51.3 722.5 51.0Q723.2 50.8 724.0 50.8L724.0 50.8Q724.5 50.8 725.1 51.0Q725.6 51.1 726.1 51.4Q726.5 51.7 726.7 52.1Q727.0 52.6 727.0 53.2L727.0 53.2L727.0 58L725.2 58L725.2 57.0L725.1 57.0Q724.9 57.3 724.7 57.6Q724.4 57.8 724.0 58.0Q723.6 58.1 723.0 58.1ZM723.6 56.8L723.6 56.8Q724.0 56.8 724.4 56.6Q724.7 56.4 724.9 56.1Q725.1 55.8 725.1 55.5L725.1 55.5L725.1 54.7Q725.0 54.8 724.8 54.8Q724.7 54.9 724.5 54.9Q724.2 54.9 724.0 55.0Q723.8 55.0 723.7 55.0L723.7 55.0Q723.3 55.1 723.1 55.2Q722.8 55.3 722.7 55.5Q722.5 55.7 722.5 56.0L722.5 56.0Q722.5 56.2 722.6 56.4Q722.8 56.6 723.0 56.7Q723.3 56.8 723.6 56.8ZM730.5 58L728.6 58L728.6 48.5L730.5 48.5L730.5 53.6L730.6 53.6L732.9 50.9L735.1 50.9L732.5 54.0L735.3 58L733.0 58L731.1 55.1L730.5 55.7L730.5 58ZM739.4 58.1L739.4 58.1Q738.3 58.1 737.5 57.7Q736.7 57.3 736.3 56.4Q735.8 55.6 735.8 54.5L735.8 54.5Q735.8 53.4 736.3 52.6Q736.7 51.7 737.5 51.3Q738.2 50.8 739.3 50.8L739.3 50.8Q740.0 50.8 740.6 51.0Q741.2 51.3 741.6 51.7Q742.1 52.2 742.3 52.8Q742.6 53.5 742.6 54.4L742.6 54.4L742.6 54.9L737.7 54.9Q737.8 55.5 737.9 55.9L737.9 55.9Q738.1 56.3 738.5 56.5Q738.9 56.7 739.4 56.7L739.4 56.7Q739.7 56.7 740.0 56.6Q740.3 56.5 740.5 56.3Q740.7 56.1 740.8 55.9L740.8 55.9L742.5 56.2Q742.3 56.8 741.9 57.2Q741.5 57.7 740.8 57.9Q740.2 58.1 739.4 58.1ZM737.7 53.8L737.7 53.8L740.8 53.8Q740.7 53.4 740.6 53.1L740.6 53.1Q740.4 52.7 740.1 52.5Q739.8 52.2 739.3 52.2L739.3 52.2Q738.8 52.2 738.4 52.5Q738.1 52.7 737.9 53.1L737.9 53.1Q737.8 53.4 737.7 53.8ZM745.8 58L743.9 58L743.9 50.9L745.7 50.9L745.7 52.1L745.8 52.1Q746.0 51.5 746.5 51.1Q746.9 50.8 747.5 50.8L747.5 50.8Q747.7 50.8 747.8 50.8Q748.0 50.8 748.1 50.9L748.1 50.9L748.1 52.6Q748.0 52.5 747.8 52.5Q747.5 52.5 747.3 52.5L747.3 52.5Q746.9 52.5 746.5 52.7Q746.2 52.9 746.0 53.2Q745.8 53.5 745.8 54.0L745.8 54.0L745.8 58Z M756.4 58.1L756.4 58.1Q755.2 58.1 754.2 57.6Q753.2 57.0 752.6 55.9Q752.0 54.8 752.0 53.3L752.0 53.3Q752.0 51.7 752.6 50.6Q753.2 49.6 754.2 49.0Q755.2 48.4 756.4 48.4L756.4 48.4Q757.2 48.4 757.9 48.6Q758.6 48.9 759.2 49.3Q759.7 49.7 760.1 50.4Q760.4 51.0 760.5 51.8L760.5 51.8L758.5 51.8Q758.5 51.4 758.3 51.1Q758.1 50.8 757.9 50.6Q757.6 50.4 757.2 50.2Q756.9 50.1 756.5 50.1L756.5 50.1Q755.7 50.1 755.2 50.5Q754.6 50.9 754.3 51.6Q754.0 52.3 754.0 53.3L754.0 53.3Q754.0 54.3 754.3 55.0Q754.6 55.7 755.2 56.1Q755.7 56.4 756.5 56.4L756.5 56.4Q756.9 56.4 757.2 56.3Q757.6 56.2 757.8 56.0Q758.1 55.8 758.3 55.5Q758.5 55.1 758.6 54.8L758.6 54.8L760.5 54.8Q760.4 55.4 760.1 56.0Q759.8 56.6 759.3 57.1Q758.8 57.6 758.1 57.9Q757.3 58.1 756.4 58.1ZM764.3 58.1L764.3 58.1Q763.6 58.1 763.0 57.8Q762.5 57.4 762.2 56.8Q761.9 56.2 761.9 55.4L761.9 55.4L761.9 50.9L763.8 50.9L763.8 55.1Q763.8 55.7 764.1 56.1Q764.5 56.5 765.1 56.5L765.1 56.5Q765.5 56.5 765.8 56.3Q766.1 56.1 766.3 55.8Q766.4 55.5 766.4 55.0L766.4 55.0L766.4 50.9L768.4 50.9L768.4 58L766.6 58L766.5 56.5Q766.3 57.2 765.8 57.6L765.8 57.6Q765.2 58.1 764.3 58.1ZM770.0 48.5L771.9 48.5L771.9 58L770.0 58L770.0 48.5ZM775.7 50.9L777.0 50.9L777.0 52.4L775.7 52.4L775.7 55.9Q775.7 56.3 775.8 56.4Q776.0 56.6 776.3 56.6L776.3 56.6Q776.4 56.6 776.6 56.6Q776.8 56.5 776.9 56.5L776.9 56.5L777.2 57.9Q776.9 58.0 776.6 58.1Q776.3 58.1 776.0 58.1L776.0 58.1Q774.9 58.1 774.4 57.6Q773.8 57.1 773.8 56.1L773.8 56.1L773.8 52.4L772.8 52.4L772.8 50.9L773.8 50.9L773.8 49.2L775.7 49.2L775.7 50.9ZM780.7 58.1L780.7 58.1Q780.0 58.1 779.4 57.8Q778.9 57.4 778.6 56.8Q778.3 56.2 778.3 55.4L778.3 55.4L778.3 50.9L780.2 50.9L780.2 55.1Q780.2 55.7 780.5 56.1Q780.8 56.5 781.4 56.5L781.4 56.5Q781.9 56.5 782.2 56.3Q782.5 56.1 782.6 55.8Q782.8 55.5 782.8 55.0L782.8 55.0L782.8 50.9L784.7 50.9L784.7 58L782.9 58L782.9 56.5Q782.6 57.2 782.2 57.6L782.2 57.6Q781.6 58.1 780.7 58.1ZM788.3 58L786.4 58L786.4 50.9L788.2 50.9L788.2 52.1L788.3 52.1Q788.5 51.5 788.9 51.1Q789.4 50.8 790.0 50.8L790.0 50.8Q790.1 50.8 790.3 50.8Q790.5 50.8 790.6 50.9L790.6 50.9L790.6 52.6Q790.5 52.5 790.2 52.5Q790.0 52.5 789.8 52.5L789.8 52.5Q789.3 52.5 789.0 52.7Q788.6 52.9 788.4 53.2Q788.3 53.5 788.3 54.0L788.3 54.0L788.3 58ZM794.9 58.1L794.9 58.1Q793.8 58.1 793.0 57.7Q792.2 57.3 791.8 56.4Q791.3 55.6 791.3 54.5L791.3 54.5Q791.3 53.4 791.8 52.6Q792.2 51.7 793.0 51.3Q793.7 50.8 794.8 50.8L794.8 50.8Q795.5 50.8 796.1 51.0Q796.7 51.3 797.1 51.7Q797.6 52.2 797.8 52.8Q798.1 53.5 798.1 54.4L798.1 54.4L798.1 54.9L793.2 54.9Q793.3 55.5 793.4 55.9L793.4 55.9Q793.6 56.3 794.0 56.5Q794.4 56.7 794.9 56.7L794.9 56.7Q795.2 56.7 795.5 56.6Q795.8 56.5 796.0 56.3Q796.2 56.1 796.3 55.9L796.3 55.9L798.0 56.2Q797.8 56.8 797.4 57.2Q797.0 57.7 796.3 57.9Q795.7 58.1 794.9 58.1ZM793.2 53.8L793.2 53.8L796.3 53.8Q796.2 53.4 796.1 53.1L796.1 53.1Q795.9 52.7 795.6 52.5Q795.3 52.2 794.8 52.2L794.8 52.2Q794.3 52.2 793.9 52.5Q793.6 52.7 793.4 53.1L793.4 53.1Q793.3 53.4 793.2 53.8Z "/></g><mask id="satori_om-id-3-2"><rect x="671" y="67" width="132" height="15" fill="#fff"/></mask><g  ><path fill="rgba(180,165,255,0.6)" d="M675.4 79L674.2 79L671.3 71.0L672.4 71.0L674.0 75.7Q674.2 76.2 674.4 76.8L674.4 76.8Q674.6 77.4 674.8 78.2L674.8 78.2Q675.0 77.4 675.2 76.8L675.2 76.8Q675.4 76.2 675.6 75.7L675.6 75.7L677.2 71.0L678.3 71.0L675.4 79ZM681.6 71.9L679.1 71.9L679.1 71.0L685.2 71.0L685.2 71.9L682.7 71.9L682.7 79L681.6 79L681.6 71.9ZM688.6 79.1L688.6 79.1Q688.0 79.1 687.5 78.8Q687.0 78.6 686.8 78.1Q686.5 77.6 686.5 76.8L686.5 76.8L686.5 73.0L687.5 73.0L687.5 76.7Q687.5 77.4 687.9 77.8Q688.2 78.2 688.9 78.2L688.9 78.2Q689.3 78.2 689.6 78.0Q690.0 77.8 690.2 77.5Q690.4 77.1 690.4 76.6L690.4 76.6L690.4 73.0L691.3 73.0L691.3 79L690.4 79L690.4 77.9Q690.2 78.5 689.8 78.7L689.8 78.7Q689.2 79.1 688.6 79.1ZM695.8 79.1L695.8 79.1Q695.3 79.1 694.9 78.9Q694.6 78.7 694.4 78.5Q694.2 78.2 694.1 78.1L694.1 78.1L694.0 78.1L694.0 79L693.0 79L693.0 71.0L694.0 71.0L694.0 74.0L694.1 74.0Q694.2 73.8 694.4 73.6Q694.6 73.3 694.9 73.1Q695.2 72.9 695.8 72.9L695.8 72.9Q696.6 72.9 697.1 73.3Q697.7 73.7 698.0 74.4Q698.4 75.1 698.4 76.0L698.4 76.0Q698.4 77.0 698.0 77.7Q697.7 78.4 697.2 78.7Q696.6 79.1 695.8 79.1ZM695.7 78.3L695.7 78.3Q696.2 78.3 696.6 78.0Q697.0 77.7 697.2 77.1Q697.4 76.6 697.4 76.0L697.4 76.0Q697.4 75.4 697.2 74.9Q697.0 74.4 696.6 74.1Q696.3 73.8 695.7 73.8L695.7 73.8Q695.1 73.8 694.8 74.1Q694.4 74.3 694.2 74.8Q694.0 75.3 694.0 76.0L694.0 76.0Q694.0 76.7 694.2 77.2Q694.4 77.7 694.8 78.0Q695.1 78.3 695.7 78.3ZM702.3 79.1L702.3 79.1Q701.4 79.1 700.8 78.7Q700.2 78.4 699.8 77.7Q699.5 77.0 699.5 76.0Q699.5 75.1 699.8 74.4Q700.2 73.7 700.8 73.3Q701.4 72.9 702.2 72.9L702.2 72.9Q702.7 72.9 703.1 73.1Q703.6 73.2 704.0 73.6Q704.4 73.9 704.6 74.5Q704.8 75.1 704.8 75.9L704.8 75.9L704.8 76.3L700.5 76.3Q700.5 76.9 700.7 77.3L700.7 77.3Q700.9 77.8 701.3 78.0Q701.8 78.3 702.3 78.3L702.3 78.3Q702.7 78.3 703.0 78.2Q703.2 78.1 703.5 77.9Q703.7 77.7 703.8 77.3L703.8 77.3L704.7 77.6Q704.6 78.1 704.2 78.4Q703.9 78.7 703.4 78.9Q702.9 79.1 702.3 79.1ZM700.5 75.5L700.5 75.5L703.8 75.5Q703.8 75.1 703.7 74.8L703.7 74.8Q703.5 74.3 703.1 74.0Q702.7 73.8 702.2 73.8Q701.6 73.8 701.3 74.0Q700.9 74.3 700.7 74.7L700.7 74.7Q700.5 75.1 700.5 75.5ZM707.2 79L706.2 79L706.2 73.0L707.1 73.0L707.1 73.9L707.2 73.9Q707.4 73.5 707.8 73.2Q708.2 72.9 708.7 72.9L708.7 72.9Q708.9 72.9 709.0 72.9Q709.2 72.9 709.2 72.9L709.2 72.9L709.2 73.9Q709.2 73.9 709.0 73.9Q708.9 73.8 708.7 73.8L708.7 73.8Q708.2 73.8 707.9 74.0Q707.5 74.2 707.4 74.5Q707.2 74.8 707.2 75.2L707.2 75.2L707.2 79Z M715.7 79.1L715.7 79.1Q714.9 79.1 714.3 78.8Q713.8 78.5 713.4 78.0Q713.1 77.5 713.1 76.9L713.1 76.9Q713.1 76.4 713.4 76.0Q713.6 75.6 713.9 75.3L713.9 75.3Q714.3 75.0 714.7 74.7L714.7 74.7Q714.6 74.5 714.5 74.4L714.5 74.4Q714.2 74.0 714.0 73.6Q713.8 73.2 713.8 72.7L713.8 72.7Q713.8 72.2 714.0 71.8Q714.3 71.4 714.7 71.2Q715.2 70.9 715.7 70.9L715.7 70.9Q716.3 70.9 716.8 71.2Q717.2 71.4 717.5 71.8Q717.7 72.2 717.7 72.6L717.7 72.6Q717.7 73.0 717.6 73.3Q717.4 73.6 717.2 73.9Q716.9 74.2 716.6 74.4L716.6 74.4L716.0 74.8L717.8 76.9Q717.8 76.8 717.9 76.6L717.9 76.6Q718.1 76.1 718.1 75.5L718.1 75.5L719.0 75.5Q719.0 76.3 718.8 76.8Q718.7 77.3 718.4 77.6L718.4 77.6Q718.4 77.6 718.4 77.6L718.4 77.6L719.5 79L718.3 79L717.8 78.3Q717.4 78.7 716.9 78.9L716.9 78.9Q716.3 79.1 715.7 79.1ZM717.2 77.6L715.3 75.4L715.0 75.6Q714.5 75.9 714.3 76.3Q714.1 76.6 714.1 76.9L714.1 76.9Q714.1 77.3 714.3 77.6Q714.5 77.9 714.8 78.1Q715.2 78.3 715.6 78.3L715.6 78.3Q716.1 78.3 716.5 78.1L716.5 78.1Q716.9 77.9 717.2 77.6L717.2 77.6ZM715.5 74.1L715.5 74.1L716.0 73.7Q716.1 73.6 716.3 73.5Q716.5 73.3 716.6 73.1Q716.7 72.9 716.7 72.6L716.7 72.6Q716.7 72.2 716.5 72.0Q716.2 71.8 715.8 71.8L715.8 71.8Q715.5 71.8 715.2 71.9Q715.0 72.0 714.9 72.2Q714.8 72.4 714.8 72.7L714.8 72.7Q714.8 73.0 714.9 73.3Q715.0 73.6 715.3 73.9L715.3 73.9Q715.4 74.0 715.5 74.1Z M726.0 79.1L726.0 79.1Q725.2 79.1 724.6 78.7Q724.0 78.4 723.7 77.7Q723.3 77.0 723.3 76.0L723.3 76.0Q723.3 75.1 723.7 74.4Q724.0 73.7 724.6 73.3Q725.2 72.9 726.0 72.9L726.0 72.9Q726.5 72.9 726.9 73.0Q727.3 73.1 727.6 73.4Q727.9 73.6 728.1 73.9Q728.4 74.2 728.5 74.6L728.5 74.6L727.6 74.8Q727.5 74.6 727.4 74.4Q727.2 74.2 727.0 74.1Q726.8 73.9 726.6 73.9Q726.3 73.8 726.0 73.8L726.0 73.8Q725.4 73.8 725.1 74.1Q724.7 74.4 724.5 74.9Q724.3 75.4 724.3 76.0L724.3 76.0Q724.3 76.6 724.5 77.1Q724.7 77.6 725.1 78.0Q725.4 78.3 726.0 78.3L726.0 78.3Q726.3 78.3 726.6 78.2Q726.9 78.1 727.1 78.0Q727.2 77.8 727.4 77.6Q727.5 77.4 727.6 77.2L727.6 77.2L728.5 77.4Q728.4 77.8 728.2 78.1Q727.9 78.5 727.6 78.7Q727.3 78.9 726.9 79.0Q726.5 79.1 726.0 79.1ZM732.3 79.1L732.3 79.1Q731.5 79.1 730.9 78.7Q730.3 78.4 729.9 77.7Q729.6 77.0 729.6 76.0L729.6 76.0Q729.6 75.1 729.9 74.4Q730.3 73.7 730.9 73.3Q731.5 72.9 732.3 72.9L732.3 72.9Q733.2 72.9 733.8 73.3Q734.4 73.7 734.7 74.4Q735.1 75.1 735.1 76.0L735.1 76.0Q735.1 77.0 734.7 77.7Q734.4 78.4 733.8 78.7Q733.2 79.1 732.3 79.1ZM732.3 78.3L732.3 78.3Q732.9 78.3 733.3 78.0Q733.7 77.6 733.9 77.1Q734.1 76.6 734.1 76.0L734.1 76.0Q734.1 75.4 733.9 74.9Q733.7 74.4 733.3 74.1Q732.9 73.8 732.3 73.8L732.3 73.8Q731.7 73.8 731.3 74.1Q731.0 74.4 730.8 74.9Q730.6 75.4 730.6 76.0L730.6 76.0Q730.6 76.6 730.8 77.1Q731.0 77.6 731.3 78.0Q731.7 78.3 732.3 78.3ZM737.5 75.4L737.5 75.4L737.5 79L736.5 79L736.5 73.0L737.4 73.0L737.4 74.1Q737.7 73.5 738.1 73.3L738.1 73.3Q738.6 72.9 739.3 72.9L739.3 72.9Q739.9 72.9 740.3 73.2Q740.8 73.4 741.0 73.9Q741.3 74.4 741.3 75.2L741.3 75.2L741.3 79L740.3 79L740.3 75.3Q740.3 74.6 740.0 74.2Q739.6 73.8 739.0 73.8L739.0 73.8Q738.5 73.8 738.2 74.0Q737.8 74.2 737.6 74.5Q737.5 74.9 737.5 75.4ZM744.1 73.0L745.3 73.0L745.3 73.8L744.1 73.8L744.1 77.4Q744.1 77.8 744.3 78.0Q744.4 78.2 744.8 78.2L744.8 78.2Q744.9 78.2 745.1 78.2Q745.2 78.2 745.3 78.2L745.3 78.2L745.5 79.0Q745.4 79.0 745.2 79.0Q745.0 79.1 744.8 79.1L744.8 79.1Q744.0 79.1 743.6 78.7Q743.1 78.3 743.1 77.5L743.1 77.5L743.1 73.8L742.2 73.8L742.2 73.0L743.1 73.0L743.1 71.6L744.1 71.6L744.1 73.0ZM749.1 79.1L749.1 79.1Q748.2 79.1 747.6 78.7Q747.0 78.4 746.6 77.7Q746.3 77.0 746.3 76.0Q746.3 75.1 746.6 74.4Q747.0 73.7 747.6 73.3Q748.2 72.9 749.0 72.9L749.0 72.9Q749.5 72.9 749.9 73.1Q750.4 73.2 750.8 73.6Q751.2 73.9 751.4 74.5Q751.6 75.1 751.6 75.9L751.6 75.9L751.6 76.3L747.3 76.3Q747.3 76.9 747.5 77.3L747.5 77.3Q747.7 77.8 748.1 78.0Q748.6 78.3 749.1 78.3L749.1 78.3Q749.5 78.3 749.8 78.2Q750.0 78.1 750.3 77.9Q750.5 77.7 750.6 77.3L750.6 77.3L751.5 77.6Q751.4 78.1 751.0 78.4Q750.7 78.7 750.2 78.9Q749.7 79.1 749.1 79.1ZM747.3 75.5L747.3 75.5L750.6 75.5Q750.6 75.1 750.5 74.8L750.5 74.8Q750.3 74.3 749.9 74.0Q749.5 73.8 749.0 73.8Q748.5 73.8 748.1 74.0Q747.7 74.3 747.5 74.7L747.5 74.7Q747.3 75.1 747.3 75.5ZM754.0 75.4L754.0 75.4L754.0 79L753.0 79L753.0 73.0L753.9 73.0L753.9 74.1Q754.2 73.5 754.6 73.3L754.6 73.3Q755.1 72.9 755.8 72.9L755.8 72.9Q756.4 72.9 756.8 73.2Q757.3 73.4 757.5 73.9Q757.8 74.4 757.8 75.2L757.8 75.2L757.8 79L756.8 79L756.8 75.3Q756.8 74.6 756.5 74.2Q756.1 73.8 755.5 73.8L755.5 73.8Q755.0 73.8 754.7 74.0Q754.4 74.2 754.2 74.5Q754.0 74.9 754.0 75.4ZM760.6 73.0L761.9 73.0L761.9 73.8L760.6 73.8L760.6 77.4Q760.6 77.8 760.8 78.0Q760.9 78.2 761.3 78.2L761.3 78.2Q761.4 78.2 761.6 78.2Q761.7 78.2 761.8 78.2L761.8 78.2L762.0 79.0Q761.9 79.0 761.7 79.0Q761.5 79.1 761.3 79.1L761.3 79.1Q760.5 79.1 760.1 78.7Q759.7 78.3 759.7 77.5L759.7 77.5L759.7 73.8L758.8 73.8L758.8 73.0L759.7 73.0L759.7 71.6L760.6 71.6L760.6 73.0Z M768.6 79.1L768.6 79.1Q767.8 79.1 767.2 78.7Q766.6 78.4 766.2 77.7Q765.9 77.0 765.9 76.0L765.9 76.0Q765.9 75.1 766.2 74.4Q766.6 73.7 767.2 73.3Q767.8 72.9 768.6 72.9L768.6 72.9Q769.1 72.9 769.5 73.0Q769.8 73.1 770.2 73.4Q770.5 73.6 770.7 73.9Q770.9 74.2 771.1 74.6L771.1 74.6L770.1 74.8Q770.1 74.6 769.9 74.4Q769.8 74.2 769.6 74.1Q769.4 73.9 769.2 73.9Q768.9 73.8 768.6 73.8L768.6 73.8Q768.0 73.8 767.6 74.1Q767.3 74.4 767.1 74.9Q766.9 75.4 766.9 76.0L766.9 76.0Q766.9 76.6 767.1 77.1Q767.3 77.6 767.6 78.0Q768.0 78.3 768.6 78.3L768.6 78.3Q768.9 78.3 769.2 78.2Q769.4 78.1 769.6 78.0Q769.8 77.8 770.0 77.6Q770.1 77.4 770.2 77.2L770.2 77.2L771.1 77.4Q771.0 77.8 770.7 78.1Q770.5 78.5 770.2 78.7Q769.9 78.9 769.5 79.0Q769.1 79.1 768.6 79.1ZM773.4 79L772.5 79L772.5 73.0L773.4 73.0L773.4 73.9L773.5 73.9Q773.6 73.5 774.1 73.2Q774.5 72.9 775.0 72.9L775.0 72.9Q775.1 72.9 775.3 72.9Q775.4 72.9 775.5 72.9L775.5 72.9L775.5 73.9Q775.5 73.9 775.3 73.9Q775.1 73.8 774.9 73.8L774.9 73.8Q774.5 73.8 774.2 74.0Q773.8 74.2 773.6 74.5Q773.4 74.8 773.4 75.2L773.4 75.2L773.4 79ZM779.1 79.1L779.1 79.1Q778.3 79.1 777.6 78.7Q777.0 78.4 776.7 77.7Q776.3 77.0 776.3 76.0Q776.3 75.1 776.7 74.4Q777.0 73.7 777.6 73.3Q778.2 72.9 779.0 72.9L779.0 72.9Q779.5 72.9 780.0 73.1Q780.4 73.2 780.8 73.6Q781.2 73.9 781.4 74.5Q781.6 75.1 781.6 75.9L781.6 75.9L781.6 76.3L777.3 76.3Q777.3 76.9 777.5 77.3L777.5 77.3Q777.8 77.8 778.2 78.0Q778.6 78.3 779.1 78.3L779.1 78.3Q779.5 78.3 779.8 78.2Q780.1 78.1 780.3 77.9Q780.5 77.7 780.6 77.3L780.6 77.3L781.5 77.6Q781.4 78.1 781.1 78.4Q780.7 78.7 780.2 78.9Q779.8 79.1 779.1 79.1ZM777.3 75.5L777.3 75.5L780.7 75.5Q780.6 75.1 780.5 74.8L780.5 74.8Q780.3 74.3 779.9 74.0Q779.6 73.8 779.0 73.8Q778.5 73.8 778.1 74.0Q777.7 74.3 777.5 74.7L777.5 74.7Q777.3 75.1 777.3 75.5ZM784.7 79.1L784.7 79.1Q784.1 79.1 783.7 78.9Q783.2 78.7 782.9 78.3Q782.7 77.9 782.7 77.3L782.7 77.3Q782.7 76.8 782.9 76.5Q783.1 76.1 783.4 75.9Q783.8 75.8 784.2 75.7Q784.6 75.6 785.0 75.5L785.0 75.5Q785.5 75.5 785.9 75.4Q786.2 75.4 786.4 75.3Q786.5 75.2 786.5 75.0L786.5 75.0L786.5 74.9Q786.5 74.6 786.4 74.3Q786.3 74.0 786.0 73.9Q785.7 73.8 785.3 73.8L785.3 73.8Q784.9 73.8 784.5 73.9Q784.2 74.0 784.0 74.2Q783.9 74.4 783.8 74.6L783.8 74.6L782.8 74.3Q783.1 73.8 783.5 73.5Q783.8 73.2 784.3 73.0Q784.8 72.9 785.3 72.9L785.3 72.9Q785.6 72.9 785.9 73.0Q786.3 73.1 786.7 73.3Q787.0 73.5 787.3 73.9Q787.5 74.3 787.5 75.0L787.5 75.0L787.5 79L786.6 79L786.6 78.2L786.5 78.2Q786.4 78.4 786.2 78.6Q785.9 78.8 785.6 79.0Q785.2 79.1 784.7 79.1ZM784.9 78.3L784.9 78.3Q785.4 78.3 785.8 78.1Q786.2 77.9 786.3 77.5Q786.5 77.2 786.5 76.8L786.5 76.8L786.5 76.0Q786.5 76.1 786.3 76.1Q786.1 76.2 785.8 76.2Q785.6 76.3 785.3 76.3Q785.1 76.3 785.0 76.3L785.0 76.3Q784.6 76.4 784.3 76.5Q784.0 76.6 783.8 76.8Q783.6 77.0 783.6 77.3L783.6 77.3Q783.6 77.7 783.8 77.9Q784.0 78.1 784.2 78.2Q784.5 78.3 784.9 78.3ZM790.3 73.0L791.6 73.0L791.6 73.8L790.3 73.8L790.3 77.4Q790.3 77.8 790.5 78.0Q790.7 78.2 791.0 78.2L791.0 78.2Q791.1 78.2 791.3 78.2Q791.4 78.2 791.5 78.2L791.5 78.2L791.7 79.0Q791.6 79.0 791.4 79.0Q791.2 79.1 791.0 79.1L791.0 79.1Q790.2 79.1 789.8 78.7Q789.4 78.3 789.4 77.5L789.4 77.5L789.4 73.8L788.5 73.8L788.5 73.0L789.4 73.0L789.4 71.6L790.3 71.6L790.3 73.0ZM795.2 79.1L795.2 79.1Q794.4 79.1 793.8 78.7Q793.2 78.4 792.9 77.7Q792.5 77.0 792.5 76.0L792.5 76.0Q792.5 75.1 792.9 74.4Q793.2 73.7 793.8 73.3Q794.4 72.9 795.2 72.9L795.2 72.9Q796.1 72.9 796.7 73.3Q797.3 73.7 797.6 74.4Q798.0 75.1 798.0 76.0L798.0 76.0Q798.0 77.0 797.6 77.7Q797.3 78.4 796.7 78.7Q796.1 79.1 795.2 79.1ZM795.2 78.3L795.2 78.3Q795.9 78.3 796.2 78.0Q796.6 77.6 796.8 77.1Q797.0 76.6 797.0 76.0L797.0 76.0Q797.0 75.4 796.8 74.9Q796.6 74.4 796.2 74.1Q795.9 73.8 795.2 73.8L795.2 73.8Q794.6 73.8 794.3 74.1Q793.9 74.4 793.7 74.9Q793.5 75.4 793.5 76.0L793.5 76.0Q793.5 76.6 793.7 77.1Q793.9 77.6 794.3 78.0Q794.6 78.3 795.2 78.3ZM800.4 79L799.4 79L799.4 73.0L800.3 73.0L800.3 73.9L800.4 73.9Q800.6 73.5 801.0 73.2Q801.4 72.9 802.0 72.9L802.0 72.9Q802.1 72.9 802.2 72.9Q802.4 72.9 802.4 72.9L802.4 72.9L802.4 73.9Q802.4 73.9 802.2 73.9Q802.1 73.8 801.9 73.8L801.9 73.8Q801.4 73.8 801.1 74.0Q800.7 74.2 800.6 74.5Q800.4 74.8 800.4 75.2L800.4 75.2L800.4 79Z "/></g></svg>